<svg xmlns="http://www.w3.org/2000/svg" fill="none" viewBox="0 0 587 319"><path fill="#D4D4D4" d="M581 153.389h1v-1h-1v1zm0 164v1h1v-1h-1zm-580 0H0v1h1v-1zm0-164v-1H0v1h1zm158-1h-4.309v2H159v-2zm-10.055 0h-8.618v2h8.618v-2zm-14.363 0h-8.618v2h8.618v-2zm-14.364 0H111.6v2h8.618v-2zm-14.363 0h-8.619v2h8.619v-2zm-14.364 0h-8.618v2h8.618v-2zm-14.364 0H68.51v2h8.618v-2zm-14.363 0h-8.619v2h8.619v-2zm-14.364 0h-8.618v2H48.4v-2zm-14.364 0h-8.618v2h8.618v-2zm-14.363 0h-8.618v2h8.618v-2zm-14.364 0H1v2h4.31v-2zm-5.309 1v4.473h2v-4.473H0zm0 10.436v8.946h2v-8.946H0zm0 14.909v8.946h2v-8.946H0zm0 14.909v8.946h2v-8.946H0zm0 14.91v8.945h2v-8.945H0zm0 14.909v8.945h2v-8.945H0zm0 14.909v8.945h2v-8.945H0zm0 14.909v8.945h2v-8.945H0zm0 14.909v8.945h2v-8.945H0zm0 14.909v8.945h2v-8.945H0zm0 14.909v8.946h2v-8.946H0zm0 14.909v4.473h2v-4.473H0zm1 5.473h4.462v-2H1v2zm10.41 0h8.923v-2H11.41v2zm14.872 0h8.923v-2h-8.923v2zm14.872 0h8.923v-2h-8.923v2zm14.872 0h8.923v-2h-8.923v2zm14.871 0h8.923v-2h-8.923v2zm14.872 0h8.923v-2H85.77v2zm14.872 0h8.923v-2h-8.923v2zm14.872 0h8.923v-2h-8.923v2zm14.872 0h8.923v-2h-8.923v2zm14.871 0h8.923v-2h-8.923v2zm14.872 0h8.923v-2h-8.923v2zm14.872 0h8.923v-2H175v2zm14.872 0h8.923v-2h-8.923v2zm14.872 0h8.923v-2h-8.923v2zm14.871 0h8.923v-2h-8.923v2zm14.872 0h8.923v-2h-8.923v2zm14.872 0h8.923v-2h-8.923v2zm14.872 0h8.923v-2h-8.923v2zm14.872 0h8.923v-2h-8.923v2zm14.871 0h8.923v-2h-8.923v2zm14.872 0h8.923v-2h-8.923v2zm14.872 0h8.923v-2h-8.923v2zm14.872 0h8.923v-2h-8.923v2zm14.872 0h8.923v-2h-8.923v2zm14.871 0h8.923v-2h-8.923v2zm14.872 0h8.923v-2h-8.923v2zm14.872 0H407v-2h-8.923v2zm14.872 0h8.923v-2h-8.923v2zm14.872 0h8.923v-2h-8.923v2zm14.871 0h8.923v-2h-8.923v2zm14.872 0h8.923v-2h-8.923v2zm14.872 0h8.923v-2h-8.923v2zm14.872 0h8.923v-2h-8.923v2zm14.872 0h8.923v-2h-8.923v2zm14.871 0h8.923v-2h-8.923v2zm14.872 0h8.923v-2h-8.923v2zm14.872 0h8.923v-2h-8.923v2zm14.872 0h8.923v-2h-8.923v2zm14.872 0H581v-2h-4.461v2zm5.461-1v-4.473h-2v4.473h2zm0-10.436v-8.946h-2v8.946h2zm0-14.91v-8.945h-2v8.945h2zm0-14.909v-8.945h-2v8.945h2zm0-14.909v-8.945h-2v8.945h2zm0-14.909v-8.945h-2v8.945h2zm0-14.909v-8.945h-2v8.945h2zm0-14.909v-8.945h-2v8.945h2zm0-14.909v-8.946h-2v8.946h2zm0-14.909v-8.946h-2v8.946h2zm0-14.909v-8.946h-2v8.946h2zm0-14.909v-4.473h-2v4.473h2zm-1-5.473h-4.417v2H581v-2zm-10.306 0h-8.833v2h8.833v-2zm-14.722 0h-8.833v2h8.833v-2zm-14.722 0h-8.833v2h8.833v-2zm-14.722 0h-8.834v2h8.834v-2zm-14.722 0h-8.834v2h8.834v-2zm-14.723 0h-8.833v2h8.833v-2zm-14.722 0h-8.833v2h8.833v-2zm-14.722 0h-8.833v2h8.833v-2zm-14.722 0H448.5v2h4.417v-2z"/><rect width="289" height="142" x="159.5" y="75.889" stroke="#D4D4D4" rx="3.5"/><path fill="#262626" d="M237.756 190.407v1.386h12.502v-1.386h-5.404a19.863 19.863 0 0 0-.742-1.624l-1.638.28c.28.42.532.868.756 1.344h-5.474zm8.596 1.47-.994.952c1.652 1.33 2.94 2.562 3.836 3.71l1.078-1.092c-1.064-1.19-2.38-2.38-3.92-3.57zm-.21 2.646a10.852 10.852 0 0 1-2.142 2.828 9.843 9.843 0 0 1-2.198-2.744l-1.26.714c.616 1.106 1.4 2.1 2.324 2.968-1.428 1.008-3.178 1.778-5.25 2.282l.91 1.344c2.156-.56 3.99-1.428 5.53-2.632 1.498 1.12 3.332 1.988 5.488 2.59l.91-1.372c-2.072-.518-3.836-1.26-5.264-2.226a12.848 12.848 0 0 0 2.296-3.15l-1.344-.602zm-4.592-2.632c-1.036 1.274-2.324 2.38-3.836 3.332l.938 1.232c1.568-1.036 2.898-2.24 3.962-3.64l-1.064-.924zm13.706 2.702c-.756.84-1.89 1.554-3.388 2.114l.798 1.288a14.934 14.934 0 0 0 2.24-1.302h1.68c-.868.952-2.198 1.75-3.99 2.38l.924 1.134c2.128-.854 3.682-2.03 4.662-3.514h1.358c-1.064 1.904-2.73 3.206-4.998 3.906l.826 1.232c2.576-.84 4.48-2.562 5.684-5.138h.994c-.056 1.54-.182 2.548-.378 3.024-.196.448-.588.686-1.19.686-.532 0-1.092-.028-1.666-.07l.364 1.372h2.002c.672-.028 1.148-.224 1.442-.588.294-.378.518-1.036.658-1.974.126-.952.21-2.198.252-3.738h-7.196a8.97 8.97 0 0 0 .63-.812h5.502v-5.278h-8.862v5.278h1.652zm5.768-1.232h-5.978v-.84h5.978v.84zm-5.978-1.988v-.826h5.978v.826h-5.978zm14.924 3.878v1.428h3.01v3.276h-3.514v1.428h8.806v-1.428h-3.808v-3.276h3.206v-1.428h-3.206v-2.408h-1.484v2.408h-3.01zm-2.45 1.4v5.236h1.442v-6.846a17.32 17.32 0 0 0 1.89-2.982h7.42v-1.428h-6.776c.21-.56.406-1.12.574-1.708l-1.512-.182c-.196.644-.42 1.274-.686 1.89h-3.962v1.428h3.262c-.938 1.652-2.198 3.136-3.766 4.438l.938 1.218c.406-.35.798-.7 1.176-1.064zm13.734-7.728a14.858 14.858 0 0 1-1.806 4.522l1.204.756c.14-.252.294-.504.434-.756v.924h.742v1.414h-1.904v1.344h1.904v2.66c0 .252-.21.434-.602.546l.56 1.204c1.134-.28 2.128-.63 2.996-1.05l-.238-1.246a9.333 9.333 0 0 1-1.344.588v-2.702h1.764v-1.344H283.2v-1.414h1.302v-1.316h-3.22c.21-.42.406-.868.602-1.344h2.94v-1.386h-2.464c.098-.35.196-.714.294-1.106l-1.4-.294zm5.572 4.228h3.402v1.204h-3.402v-1.204zm3.402-1.26h-3.402v-1.246h3.402v1.246zm1.26 4.158c-.532.63-1.078 1.12-1.638 1.47a7.627 7.627 0 0 1-.588-1.862h2.296v-6.328h-6.104v10.654c0 .196-.126.322-.378.406l.308 1.218c1.512-.378 2.772-.77 3.78-1.176l-.336-1.274c-.658.294-1.33.546-2.002.742v-4.242h1.148c.42 2.562 1.68 4.592 3.78 6.09l.77-1.26c-.812-.532-1.484-1.148-2.016-1.876.7-.392 1.344-.952 1.904-1.652l-.924-.91zm7.364-6.426v1.442h6.888v-1.442h-6.888zm-.336 3.472v1.442h4.186v5.502c0 .28-.196.42-.574.42-.588 0-1.204-.042-1.848-.098l.322 1.428h2.03c1.036 0 1.554-.462 1.554-1.386v-5.866h2.156v-1.442h-7.826zm-2.1-4.13c-.644 1.274-1.624 2.38-2.94 3.318l.448 1.47c1.806-1.246 3.08-2.632 3.822-4.158l-1.33-.63zm.658 3.22c-.756 1.484-1.918 2.786-3.486 3.878l.448 1.442c.532-.378 1.05-.77 1.526-1.162v5.502h1.442v-6.944a10.887 10.887 0 0 0 1.386-2.1l-1.316-.616zm18.55-.336h4.396v-1.428h-3.906c.112-.42.224-.868.322-1.344l-1.512-.28c-.336 1.932-.966 3.458-1.904 4.606l.924 1.134c.672-.714 1.232-1.61 1.68-2.688zm1.512.616-1.176.742c.672.896 1.218 1.722 1.61 2.478l1.218-.84c-.392-.672-.938-1.47-1.652-2.38zm-5.852-3.598v7h1.47v-7h-1.47zm-2.87.686v5.796h1.442v-5.796h-1.442zm10.598 6.748h-9.996v3.864h-1.428v1.302h12.782v-1.302h-1.358v-3.864zm-8.582 3.864v-2.548h1.414v2.548h-1.414zm2.828 0v-2.548h1.456v2.548h-1.456zm2.87 0v-2.548h1.47v2.548h-1.47zm15.988-5.782h-8.218v7.462h1.47v-.462h5.964v.476h1.442v-3.808h-7.406v-.658h6.748v-3.01zm-6.748 5.712v-.896h5.964v.896h-5.964zm0-3.85v-.7h5.334v.7h-5.334zm8.68-3.64h-5.264c-.084-.252-.182-.49-.266-.714l.644.406c.28-.392.546-.812.784-1.26h.63c.294.42.546.854.77 1.302l1.288-.49a9.268 9.268 0 0 0-.504-.812h2.212v-1.274h-3.85c.07-.196.14-.406.21-.616l-1.386-.308a8.201 8.201 0 0 1-1.386 2.688l.28.182-1.232.21c.112.21.224.434.336.686h-5.362v2.744h1.428v-1.512h9.24v1.512h1.428v-2.744zm-10.122-1.568h.518c.308.462.574.938.798 1.442l1.33-.518a8.82 8.82 0 0 0-.574-.924h1.988v-1.274h-3.444c.084-.21.154-.42.238-.63l-1.414-.308c-.322.98-.882 1.918-1.694 2.786l1.274.812a9.11 9.11 0 0 0 .98-1.386zm11.788-1.54v1.428h5.18v10.92h1.47v-7.644c1.148.588 2.576 1.442 4.298 2.534l.882-1.316a65.02 65.02 0 0 0-5.18-2.786v-1.708h5.908v-1.428h-12.558zm26.334.728h-5.306c-.14-.49-.294-.938-.448-1.344l-1.666.28c.168.322.322.672.462 1.064h-5.166v3.374h1.47v-1.96h9.184v1.96h1.47v-3.374zm-10.066 2.646v1.4h7.98v-1.4h-7.98zm-2.128 2.59v1.414h3.626c-.056.966-.336 1.75-.854 2.366-.518.56-1.526 1.022-3.024 1.4l.84 1.316c1.54-.42 2.646-1.022 3.332-1.778.7-.826 1.092-1.932 1.162-3.304h2.002v3.066c0 1.148.504 1.722 1.512 1.722h2.45c.462 0 .812-.14 1.036-.392.252-.266.42-1.12.518-2.548l-1.386-.434c-.028.952-.084 1.526-.14 1.708-.07.182-.168.28-.308.28h-1.722c-.336 0-.504-.21-.504-.63v-2.772h3.766v-1.414h-12.306zm23.772-6.692-.924.882c.546.42.994.84 1.344 1.232h-1.974a46.65 46.65 0 0 1-.042-2.03h-1.484c0 .7 0 1.386.028 2.03h-5.768v4.662c-.042 2.268-.49 4.046-1.358 5.32l1.106.994c1.078-1.582 1.652-3.668 1.722-6.272h1.974c-.028 1.428-.07 2.31-.154 2.632-.07.28-.224.42-.448.434-.392 0-.854-.028-1.414-.07l.448 1.33c.42.042.798.07 1.134.07.756-.014 1.246-.308 1.47-.896.238-.644.378-2.268.42-4.872h-3.43v-1.946h4.368c.112 1.68.308 3.094.616 4.214.154.574.322 1.106.518 1.596a9.13 9.13 0 0 1-3.36 2.562l.84 1.232a9.515 9.515 0 0 0 3.192-2.31c.168.308.364.588.56.84.686.826 1.33 1.246 1.946 1.246.7 0 1.218-.994 1.582-2.968l-1.316-.714c-.182 1.344-.35 2.016-.49 2.016-.21 0-.518-.308-.91-.91-.14-.21-.28-.462-.406-.742.854-1.246 1.554-2.758 2.1-4.536l-1.33-.574c-.364 1.26-.826 2.394-1.386 3.374-.056-.196-.112-.378-.154-.574-.224-.868-.392-2.128-.504-3.752h4.116v-1.386h-1.666l.644-.658c-.448-.49-.98-.98-1.61-1.456z"/><path stroke="#FF5A5F" stroke-linecap="round" stroke-linejoin="round" stroke-width="1.823" d="M71.103 210.825h7.179-7.18zm0-4.103H83.41 71.103zM67 198.517h32.82H67zm32.82-3.419v17.094c0 .944-.816 1.71-1.823 1.71H68.823c-1.006 0-1.823-.766-1.823-1.71v-17.094c0-.943.817-1.709 1.823-1.709h29.174c1.007 0 1.823.766 1.823 1.709z" clip-rule="evenodd"/><path fill="#fff" fill-rule="evenodd" stroke="#FF5A5F" stroke-linecap="round" stroke-linejoin="round" stroke-width="1.791" d="m106.971 202.993-7.165-4.476-7.165 4.476c.193 8.058 3.54 11.726 7.165 13.431 3.539-1.876 7.358-5.373 7.165-13.431z" clip-rule="evenodd"/><path stroke="#FF5A5F" stroke-linecap="round" stroke-linejoin="round" stroke-width="1.791" d="m103.389 205.68-4.479 4.478-1.79-1.792"/><path fill="#262626" d="m56.464 238.405-.56.816c1.136.448 2.24 1.088 3.312 1.888l.592-.928a17.933 17.933 0 0 0-3.344-1.776zm1.472-2.24-.544.816c1.12.448 2.192 1.088 3.248 1.888l.592-.912a16.241 16.241 0 0 0-3.296-1.792zm4.416 0v3.36a9.543 9.543 0 0 1-.384 2.416h-6.816v1.12h6.352c-.192.4-.432.768-.72 1.12-1.056 1.136-2.896 2.048-5.552 2.736l.656 1.024c2.64-.704 4.544-1.696 5.712-2.96.08-.096.16-.208.24-.304 2.112.96 4.16 2.08 6.144 3.344l.784-.864c-1.904-1.216-4.016-2.32-6.352-3.344.128-.24.256-.496.368-.752h6.336v-1.12h-5.952a12.26 12.26 0 0 0 .32-2.416v-3.36h-1.136zm-6.592-1.904v1.072h10.992c-.224.8-.496 1.536-.832 2.192l1.088.304c.384-.944.704-1.888.944-2.848v-.72H55.76zm24.752 7.488c.768 2.192 2.032 4 3.792 5.424l.816-.944c-1.696-1.2-2.928-2.8-3.68-4.816a14.424 14.424 0 0 0 2.752-1.424l-.784-.784a15.117 15.117 0 0 1-4.24 1.936 7.482 7.482 0 0 0-1.344-1.872c.432-.256.864-.544 1.312-.848H82.8v-1.072h-9.584v1.072h4.24a19.72 19.72 0 0 1-1.648.8c-1.232.528-2.624.96-4.16 1.296l.592.944c1.792-.512 3.248-1.024 4.352-1.536.112-.064.224-.112.352-.176.224.256.448.528.64.832-1.456 1.12-3.536 2.016-6.224 2.72l.576.992c2.592-.736 4.64-1.696 6.144-2.88.192.384.336.784.464 1.2-1.744 1.44-4.208 2.608-7.376 3.536l.576.992c2.896-.88 5.232-2.016 7.024-3.424.032.256.048.512.064.8 0 .992-.144 1.664-.432 2.016-.24.272-.832.416-1.776.432h-.768l.384 1.008h.544c1.376 0 2.272-.288 2.656-.832.336-.48.512-1.36.512-2.624a8.497 8.497 0 0 0-.416-2.496c.32-.08.656-.176.976-.272zm-2.32-8.544-1.168.208c.192.384.384.832.56 1.312h-6.336v2.784h1.136v-1.712h11.232v1.712h1.136v-2.784h-6.016a16.427 16.427 0 0 0-.544-1.52zm-21.44 22.144c-.432 1.952-1.136 3.712-2.112 5.312l.928.592c.56-.912 1.056-1.92 1.472-3.024h3.488v-1.104h-3.104c.16-.496.304-1.008.448-1.552l-1.12-.224zm-.416 4.88v1.056h1.072v2.096h-2.352v1.072h2.352v3.712c0 .224-.176.384-.528.48l.448.944c1.184-.304 2.24-.688 3.152-1.168l-.192-.992c-.608.32-1.2.592-1.792.784v-3.76h2.208v-1.072h-2.208v-2.096h1.68v-1.056h-3.84zm6.192-.352h4.576v1.824h-4.576v-1.824zm4.576-1.024h-4.576v-1.856h4.576v1.856zm1.312 4.72c-.704.8-1.44 1.408-2.208 1.824-.416-.8-.704-1.68-.88-2.656h2.832v-6.784h-6.72v12.464c0 .16-.128.272-.352.352l.24.96c1.696-.416 3.104-.864 4.224-1.328l-.256-1.008c-.912.4-1.84.72-2.768.976v-5.632h1.776c.512 3.024 1.984 5.392 4.432 7.12l.608-.976c-1.088-.72-1.968-1.584-2.624-2.608.896-.448 1.712-1.104 2.432-1.968l-.736-.736zm8.384-7.232v1.136h7.664v-1.136H76.8zm-.432 4.064v1.136h5.04v6.704c0 .416-.272.624-.784.624-.704 0-1.424-.032-2.192-.08l.24 1.136h2.352c1.024 0 1.552-.464 1.552-1.392v-6.992h2.592v-1.136h-8.8zm-2.096-4.944c-.752 1.504-1.952 2.848-3.616 4.032l.336 1.152c1.984-1.36 3.424-2.928 4.32-4.704l-1.04-.48zm.752 3.648c-.896 1.776-2.32 3.344-4.272 4.72l.336 1.152a20.387 20.387 0 0 0 2.096-1.664v6.672h1.136v-7.84c.704-.8 1.28-1.664 1.744-2.56l-1.04-.48zm17.808-3.152h-5.536v10.048h1.056v-8.976h3.456v8.976h1.024v-10.048zm-3.28 2.24v5.2c-.032 1.456-.24 2.64-.624 3.568-.416.88-1.168 1.584-2.224 2.112l.624.96c1.12-.56 1.92-1.344 2.416-2.336.512-1.072.768-2.512.8-4.304v-5.2h-.992zm1.536 8.256-.736.72c.912.96 1.632 1.872 2.144 2.736l.816-.816a18.743 18.743 0 0 0-2.224-2.64zm6.096-3.392c.768 2.976 1.92 5.248 3.424 6.784l.784-.896c-1.392-1.376-2.464-3.328-3.2-5.888h2.896v-1.12h-5.312v-6.608h-1.12v6.608h-1.152v1.12h1.152v5.376c0 .224-.128.384-.368.496l.48 1.024c1.28-.4 2.4-.912 3.392-1.536l-.208-1.024c-.736.464-1.472.832-2.176 1.104v-5.44h1.408zm2.784-7.008c-1.024 1.712-2.256 2.992-3.696 3.824l.624.896c1.504-.864 2.832-2.208 3.952-4l-.88-.72zm14.816 2.368v3.12h-9.136v-3.12h9.136zm-9.136 4.24h10.304v-5.376h-5.056a26.958 26.958 0 0 0-.864-2.064l-1.232.192c.336.576.64 1.2.928 1.872h-5.216v5.008c-.032 2.864-.688 5.2-1.984 6.992l.848.768c1.44-2.064 2.192-4.528 2.272-7.392z"/><path fill="#914669" d="M99.008 247.973c1.024 0 1.552-.608 1.552-1.792v-12.384H87.44v14.224h1.52v-12.752h10.08v10.576c0 .448-.176.672-.528.672l-2.016-.064.416 1.52h2.096zm-9.088-11.184v1.408h8.16v-1.408h-8.16zm.832 2.864v5.36h6.512v-5.36h-6.512zm5.04 4h-3.568v-2.64h3.568v2.64zm12.08 3.488h6.768v.848h1.536v-6.96h-6.128c2.704-1.344 4.576-3.04 5.616-5.072v-1.344h-6c.272-.384.512-.784.736-1.2l-1.664-.192c-.96 1.648-2.784 3.04-5.488 4.192l1.024 1.312c1.664-.8 3.024-1.696 4.112-2.688h5.536c-.704 1.152-1.776 2.176-3.232 3.056-.656-.56-1.536-1.184-2.656-1.872l-1.312.816c1.088.624 1.984 1.216 2.656 1.76-1.792.832-4.016 1.488-6.688 2l.8 1.472a48.894 48.894 0 0 0 2.864-.768v5.488h1.52v-.848zm6.768-1.472h-6.768v-3.232h6.768v3.232z"/><path fill="#FF5A5F" d="M209.333 286.389h-1v2h1v-2zm164.267 1-10-5.774v11.547l10-5.773zm-164.267 1H364.6v-2H209.333v2z"/><g clip-path="url(#a)"><mask id="b" width="8" height="11" x="499" y="22" maskUnits="userSpaceOnUse" style="mask-type:alpha"><path fill="#fff" fill-rule="evenodd" d="M499 22.21h7.695v10.686H499V22.21z" clip-rule="evenodd"/></mask><g mask="url(#b)"><path fill="#262626" fill-rule="evenodd" d="M504.084 22.997c-.787-1.108-2.654-.925-3.648-.196-1.484 1.089-1.579 3.184-1.329 4.846.264 1.756 1.117 3.412 2.612 4.422 1.406.95 3.347 1.184 4.774.157.478-.343.018-1.144-.465-.796-2.407 1.732-5.158-.725-5.821-3.04-.348-1.214-.49-2.778.063-3.95.281-.592.741-1.045 1.388-1.204.455-.114 1.313-.22 1.63.226.341.48 1.14.02.796-.465z" clip-rule="evenodd"/></g><path fill="#262626" fill-rule="evenodd" d="M504.911 25.628c-.803-.969-2.233-1.503-3.435-.988-1.303.558-2.206 2.04-2.248 3.429-.017.593.905.593.922 0 .03-.989.679-2.081 1.578-2.536.899-.455 1.94.034 2.531.746.378.457 1.027-.198.652-.651z" clip-rule="evenodd"/><mask id="c" width="9" height="11" x="524" y="22" maskUnits="userSpaceOnUse" style="mask-type:alpha"><path fill="#fff" fill-rule="evenodd" d="M524.749 22.21h7.694v10.686h-7.694V22.21z" clip-rule="evenodd"/></mask><g mask="url(#c)"><path fill="#262626" fill-rule="evenodd" d="M528.156 23.462c.303-.428 1.096-.342 1.543-.246.617.131 1.085.509 1.394 1.054.666 1.175.501 2.872.144 4.12-.663 2.316-3.414 4.773-5.821 3.04-.482-.347-.943.452-.466.796 1.392 1.002 3.28.804 4.677-.09 1.551-.995 2.442-2.698 2.71-4.488.246-1.648.16-3.709-1.283-4.811-.991-.757-2.894-.966-3.695.16-.344.484.455.945.797.465z" clip-rule="evenodd"/></g><path fill="#262626" fill-rule="evenodd" d="M527.185 26.28c.594-.718 1.628-1.194 2.531-.747.899.445 1.548 1.555 1.577 2.536.018.592.94.594.922 0-.042-1.39-.944-2.872-2.247-3.43-1.202-.515-2.632.02-3.435.99-.376.453.273 1.108.652.65zM515.82 39.438a7.032 7.032 0 0 0-.225 0c-.241.003-.472.21-.46.46.011.25.202.461.46.461h.225c.242 0 .472-.212.461-.46a.468.468 0 0 0-.461-.461h-.225v.921h.225c.242.003.472-.214.461-.46a.469.469 0 0 0-.461-.461z" clip-rule="evenodd"/><path fill="#262626" fill-rule="evenodd" d="M515.708 3.641c-3.473.017-7.071.863-9.563 3.432-1.844 1.903-2.828 4.455-3.207 7.044a20.663 20.663 0 0 0-.05 5.56 48.167 48.167 0 0 0 2.967 11.608c1.476 3.74 3.46 7.761 7.719 8.809 2.2.541 4.622.228 6.568-.951 1.606-.974 2.815-2.47 3.716-4.096 2.46-4.443 3.868-9.658 4.565-14.66a20.81 20.81 0 0 0 .137-4.314c-.174-2.523-.776-5.087-2.135-7.247-1.709-2.72-4.504-4.382-7.64-4.928a18.542 18.542 0 0 0-3.077-.257c-.593-.003-.594.92 0 .922 3.307.017 6.656.878 8.933 3.413 1.657 1.843 2.498 4.277 2.851 6.696.244 1.672.266 3.395.09 5.075l-.033.289c-.023.184.006-.044-.013.091a47.434 47.434 0 0 1-2.812 10.78c-1.428 3.652-3.374 7.66-7.653 8.408-2.218.388-4.557-.193-6.282-1.65-1.318-1.112-2.24-2.593-2.973-4.137-2.026-4.262-3.243-8.832-3.952-13.483a21.13 21.13 0 0 1-.188-4.088c.121-2.298.646-4.635 1.865-6.611 1.594-2.586 4.263-4.046 7.208-4.552.977-.169 1.969-.226 2.959-.23.593-.004.594-.926 0-.923z" clip-rule="evenodd"/><path fill="#262626" fill-rule="evenodd" d="M510.233 38.386c.353 1.56.392 3.18-.218 4.684-.521 1.285-1.425 2.374-2.432 3.31-2.122 1.968-4.762 3.267-6.92 5.196-.443.396.211 1.047.651.652 2.396-2.142 5.402-3.518 7.609-5.881 2.163-2.313 2.898-5.12 2.198-8.206-.131-.579-1.019-.334-.888.245zm10.429-.246c-.699 3.087.037 5.894 2.198 8.207 2.208 2.363 5.214 3.74 7.609 5.881.441.394 1.095-.255.651-.652-2.158-1.93-4.798-3.229-6.92-5.197-.965-.895-1.83-1.931-2.365-3.144-.679-1.542-.651-3.234-.285-4.85.131-.577-.757-.824-.888-.244z" clip-rule="evenodd"/><path fill="#262626" fill-rule="evenodd" d="m506.043 48.21 1.071.614c5.652 3.238 12.65 3 18.069-.614l6.798 3.979s-.528 7.143-15.642 7.143c-15.116 0-17.266-6.836-17.266-6.836l6.97-4.286zm8.112-27.456c.485 1.14-.329 2.313-.7 3.362-.314.893-.476 1.86-.333 2.802.237 1.574 1.428 2.885 3.052 2.995.592.041.59-.88 0-.921-2.113-.144-2.427-2.639-1.953-4.248.45-1.526 1.417-2.838.731-4.456-.232-.544-1.026-.075-.797.466zm-1.259 13.099a9.226 9.226 0 0 0 5.894.037c.561-.184.321-1.074-.245-.89a8.38 8.38 0 0 1-5.404-.035c-.563-.193-.805.698-.245.888zm-2.258-11.491c.099.984.153 1.969.164 2.957.006.593.929.595.922 0a33.948 33.948 0 0 0-.163-2.957c-.059-.585-.982-.59-.923 0zm8.691 0a33.946 33.946 0 0 0-.163 2.957c-.007.593.915.594.922 0 .011-.988.065-1.973.164-2.957.058-.59-.864-.585-.923 0zm-.407-3.787c.673-.508 1.381-1 2.169-1.314.405-.162.899-.34 1.34-.253.425.084.797.425 1.116.695.45.382 1.105-.267.652-.652-.764-.65-1.527-1.14-2.566-.925-1.174.242-2.237.945-3.177 1.653-.468.353-.009 1.154.466.796zm-6.403-.795c-.941-.71-2.002-1.412-3.176-1.654-1.039-.214-1.802.276-2.566.925-.454.385.201 1.034.651.652.289-.246.595-.528.965-.64.501-.153 1.02.01 1.491.198.789.315 1.496.807 2.169 1.315.474.357.934-.444.466-.797z" clip-rule="evenodd"/><mask id="d" width="33" height="23" x="500" y="1" maskUnits="userSpaceOnUse" style="mask-type:alpha"><path fill="#fff" fill-rule="evenodd" d="M500.376 1h31.869v22.282h-31.869V1z" clip-rule="evenodd"/></mask><g mask="url(#d)"><path fill="#262626" fill-rule="evenodd" d="M502.862 22.362c-.133.352-1.549-.18-1.652-1.46-.102-1.28.927-1.382.927-1.382s-1.951-.718-1.746-2.459c.205-1.741 1.955-1.997 1.746-1.946-.209.052-2.207-.768-1.49-2.458.717-1.69 1.741-2.356 1.741-2.356s-1.936-.768-.251-2.509c1.685-1.74 2.709-.615 2.709-.615s-.757-2.105.748-3.074c1.506-.971 2.581 0 2.581 0s.153-1.995 1.792-2.354c1.639-.358 1.998 1.127 1.998 1.127s.409-2.049 1.996-1.843c1.588.204 1.947 1.638 1.947 1.638s.819-1.872 2.407-1.654c1.587.22 1.312 2.064 1.312 2.064s1.504-2.048 3.143-1.23c1.639.82.87 2.252.87 2.252s1.076-1.637 2.407-.562c1.331 1.076.512 2.51.512 2.51s1.588-1.024 2.305.512c.717 1.536-.282 2.56-.282 2.56s2.023-.358 2.279.974c.256 1.33-1.229 2.406-1.229 2.406s2.445-.615 2.349 1.28c-.096 1.895-1.632 2.203-1.632 2.203s1.946-.36 1.895 1.075c-.052 1.434-1.946 1.741-1.946 1.741s1.677-.46 1.683 1.179c.007 1.638-2.4 1.484-2.195 1.587.204.102.815 1.008.512 1.125-.304.117-2.883.817-2.822.513.061-.306-1.327.002-1.275-.844.051-.846.768-1.41.768-1.41s-1.075-.511-1.024-1.279c.051-.768 1.383-.82 1.383-.82s-1.383-.5-1.383-1.504c0-1.005 1.177-1.096 1.177-1.096s-1.279-.524-1.638-1.598c-.358-1.076.563-1.537.563-1.537s-1.024.614-2.253.614-1.434-1.591-1.434-1.591-.358 2.053-1.485 2.104c-1.127.05-1.248-1.844-1.248-1.844s-.649 1.741-1.774 1.844c-1.126.102-2.185-1.537-2.185-1.537s-1.04 2.151-2.577 1.947c-1.536-.205-1.828-1.844-1.828-1.844s-.528 2.15-1.757 2.202c-1.229.05-1.895-1.486-1.895-1.486s-.242 1.537-1.35 1.844c-1.107.307-1.978-.614-1.978-.614s1.383 1.843.768 2.816c-.615.973-1.229.872-1.229.872s2.417 1.791 1.772 2.457c-.646.666-1.465.256-1.465.256s2.179 1.241.973 1.535c-1.206.293-2.24-.33-2.24-.33z" clip-rule="evenodd"/></g><path fill="#262626" fill-rule="evenodd" d="M515.472 30.74c-1.619-.212-3.666-.622-4.865.786-1.092 1.281-1.502 3.192-1.66 4.821-.058.59.865.587.922 0 .133-1.378.484-3.005 1.357-4.12.954-1.22 2.914-.739 4.246-.564.586.077.581-.846 0-.922z" clip-rule="evenodd"/><path fill="#262626" fill-rule="evenodd" d="M515.843 31.663c1.331-.175 3.291-.656 4.246.563.873 1.116 1.223 2.743 1.357 4.121.057.586.979.592.922 0-.158-1.633-.57-3.535-1.66-4.822-1.194-1.409-3.251-.996-4.865-.784-.58.076-.588.999 0 .922z" clip-rule="evenodd"/><path fill="#262626" stroke="#fff" stroke-width="2.716" d="M548.368 49.367c0-6.862-5.742-12.603-12.603-12.603-7.125 0-12.603 5.76-12.603 12.603 0 7.067 5.459 12.847 12.603 12.847 6.88 0 12.603-5.76 12.603-12.847z"/><rect width="11.52" height="14.4" x="530" y="42.389" stroke="#fff" stroke-width="1.08" rx=".72"/><path stroke="#fff" stroke-linecap="round" stroke-width="1.08" d="M532.52 52.829h7.2m-7.2 1.8h7.2"/><path stroke="#fff" stroke-width="1.08" d="M535.76 51.029a3.6 3.6 0 1 0 0-7.2 3.6 3.6 0 0 0 0 7.2z" clip-rule="evenodd"/><path fill="#fff" fill-rule="evenodd" d="M536.454 46.623c0 .105.091.199.193.199a.202.202 0 0 0 .193-.199c0-.303-.193-.84-.887-.934v-.222a.202.202 0 0 0-.193-.198.202.202 0 0 0-.193.198v.222c-.262.035-.478.129-.625.292a.955.955 0 0 0-.25.642v.01c-.001.087-.003.41.216.667.159.176.375.28.659.316v1.167a.557.557 0 0 1-.5-.549.202.202 0 0 0-.194-.198.202.202 0 0 0-.193.198c0 .304.193.841.887.935v.221c0 .105.091.199.193.199a.202.202 0 0 0 .193-.199v-.221c.262-.035.478-.129.626-.292a.96.96 0 0 0 .25-.643v-.01c0-.086.002-.409-.216-.667-.159-.175-.375-.28-.66-.315v-1.167c.467.093.501.467.501.548zm-.887.596c-.171-.024-.296-.082-.375-.175-.148-.164-.125-.397-.125-.397v-.024s0-.221.147-.373a.63.63 0 0 1 .353-.164v1.133zm.887 1.004s.022-.234-.125-.397c-.08-.105-.216-.164-.376-.187v1.144a.63.63 0 0 0 .353-.163c.148-.152.148-.374.148-.374v-.023z" clip-rule="evenodd"/><path fill="#fff" d="M535.953 45.69h-.05v.043l.044.006.006-.05zm-.386 0 .007.049.043-.006v-.044h-.05zm-.625.291.035.035.002-.001-.037-.034zm-.25.642h.05-.05zm0 .01h.05-.05zm.216.667-.039.033.002.001.037-.034zm.659.316h.05v-.044l-.044-.006-.006.05zm0 1.167-.009.05.059.01v-.06h-.05zm0 .386h.05v-.044l-.043-.006-.007.05zm.386 0-.006-.05-.044.006v.044h.05zm.626-.292-.036-.035-.001.001.037.034zm.25-.643h-.05.05zm0-.01h-.05.05zm-.216-.667.038-.032-.001-.001-.037.033zm-.66-.315h-.05v.044l.044.006.006-.05zm0-1.167.01-.05-.06-.011v.06h.05zm-.761.969.038-.033h-.001l-.037.033zm.375.175-.007.05.057.007v-.057h-.05zm-.5-.572.05.005v-.005h-.05zm0-.024h.05-.05zm.147-.373.036.035-.036-.035zm.353-.164h.05v-.058l-.058.009.008.05zm.762 1.74-.04.03.003.003.037-.033zm.125.397-.05-.005v.005h.05zm-.501-.584.008-.05-.058-.008v.058h.05zm0 1.144h-.05v.059l.058-.01-.008-.049zm.353-.163.036.035-.036-.035zm.341-1.848c-.074 0-.143-.07-.143-.149h-.1c0 .132.112.249.243.249v-.1zm.143-.149c0 .079-.07.149-.143.149v.1a.252.252 0 0 0 .243-.249h-.1zm-.843-.884c.333.045.543.195.67.368a.908.908 0 0 1 .173.516h.1c0-.16-.051-.382-.193-.575-.143-.195-.377-.36-.737-.408l-.013.099zm-.044-.272v.222h.1v-.222h-.1zm-.143-.148c.074 0 .143.07.143.148h.1a.252.252 0 0 0-.243-.248v.1zm-.143.148c0-.078.07-.148.143-.148v-.1a.252.252 0 0 0-.243.248h.1zm0 .222v-.222h-.1v.222h.1zm-.638.326c.137-.152.341-.242.595-.276l-.014-.1c-.269.037-.497.134-.655.309l.074.067zm-.237.608c0-.067.011-.377.235-.607l-.071-.07c-.253.26-.264.604-.264.677h.1zm0 .01v-.01h-.1v.01h.1zm.204.635c-.206-.243-.205-.548-.204-.635h-.1c-.001.087-.004.427.227.7l.077-.065zm.627.298c-.275-.034-.479-.134-.628-.3l-.074.068c.168.186.396.295.69.331l.012-.099zm.044 1.217v-1.167h-.1v1.167h.1zm-.6-.549c0 .047.009.173.082.3.074.129.211.255.459.299l.018-.099c-.218-.038-.331-.146-.391-.25a.53.53 0 0 1-.068-.25h-.1zm-.144-.148c.074 0 .144.07.144.148h.1a.252.252 0 0 0-.244-.248v.1zm-.143.148c0-.078.07-.148.143-.148v-.1a.252.252 0 0 0-.243.248h.1zm.844.885c-.334-.045-.543-.195-.67-.368a.903.903 0 0 1-.174-.517h-.1c0 .162.051.382.193.576.143.195.377.36.737.408l.014-.099zm.043.271v-.221h-.1v.221h.1zm.143.149c-.073 0-.143-.07-.143-.149h-.1c0 .132.112.249.243.249v-.1zm.143-.149c0 .08-.069.149-.143.149v.1a.252.252 0 0 0 .243-.249h-.1zm0-.221v.221h.1v-.221h-.1zm.639-.326c-.138.152-.341.242-.595.276l.013.1c.269-.037.498-.134.656-.309l-.074-.067zm.237-.609a.91.91 0 0 1-.236.608l.072.07c.253-.26.264-.605.264-.678h-.1zm0-.01v.01h.1v-.009h-.1zm-.204-.634c.205.242.204.548.204.635h.1c0-.088.003-.427-.228-.7l-.076.065zm-.628-.298c.275.034.479.134.629.299l.074-.067c-.169-.186-.397-.295-.69-.331l-.013.099zm-.044-1.218v1.168h.1v-1.167h-.1zm.601.55c0-.047-.01-.17-.082-.296-.074-.127-.211-.253-.459-.303l-.019.099c.218.043.331.151.391.254.061.105.069.21.069.245h.1zm-1.35.452c.09.106.228.168.406.192l.014-.099c-.164-.022-.275-.077-.344-.158l-.076.065zm-.087-.43-.05-.004v.004l-.001.008-.001.032c.001.026.003.063.009.106a.558.558 0 0 0 .131.285l.074-.067a.46.46 0 0 1-.106-.234c-.006-.037-.007-.068-.008-.09l.001-.026v-.008l-.049-.005zm-.05-.023v.024h.1v-.024h-.1zm.162-.408a.568.568 0 0 0-.142.266.795.795 0 0 0-.018.1l-.002.03v.012h.1v-.007l.002-.025a.539.539 0 0 1 .015-.086.483.483 0 0 1 .116-.22l-.071-.07zm.38-.178a.677.677 0 0 0-.38.178l.071.07a.579.579 0 0 1 .325-.15l-.016-.098zm.058 1.182v-1.133h-.1v1.133h.1zm.675.64a.457.457 0 0 1 .105.235.573.573 0 0 1 .008.09l-.001.026v.008l.05.005.049.005.001-.002v-.011l.001-.032a.66.66 0 0 0-.009-.105.563.563 0 0 0-.13-.286l-.074.067zm-.346-.17c.153.022.274.077.343.167l.079-.06c-.09-.12-.242-.182-.407-.206l-.015.099zm.057 1.094V47.64h-.1v1.144h.1zm.267-.198a.58.58 0 0 1-.324.149l.015.099a.676.676 0 0 0 .381-.178l-.072-.07zm.184-.339h-.05v.002l-.001.006-.001.024c-.003.022-.007.052-.015.086a.487.487 0 0 1-.117.221l.072.07a.628.628 0 0 0 .159-.366l.002-.03.001-.01v-.002h-.05zm-.05-.023v.023h.1v-.023h-.1z"/><path fill="#262626" d="m461.688 75.42-.544.8c1.152.4 2.272.945 3.36 1.649l.576-.88a16.905 16.905 0 0 0-3.392-1.568zm1.424-1.631-.56.816c1.12.352 2.224.848 3.28 1.456l.592-.88a19.42 19.42 0 0 0-3.312-1.392zm4.48.048v2.544c-.032.608-.128 1.168-.32 1.68h-6.88v1.104h6.288a5.815 5.815 0 0 1-.672.752c-1.04.864-2.88 1.568-5.536 2.096l.608.976c2.656-.56 4.56-1.328 5.728-2.32.064-.064.128-.128.208-.192a30.882 30.882 0 0 1 5.792 2.56l.64-1.008a35.932 35.932 0 0 0-5.776-2.336c.112-.176.224-.352.32-.528h5.744V78.06h-5.296a7.704 7.704 0 0 0 .256-1.68v-2.544h-1.104zm-7.024-1.664v1.04h11.536c-.256.96-.56 1.824-.944 2.592l1.088.304a22.97 22.97 0 0 0 1.024-3.232v-.704h-5.648v-1.536h4.672v-1.04h-4.672v-1.264h-1.12v1.264h-4.768v1.04h4.768v1.536h-5.936zm24.944 4.576c.768 2.192 2.032 4 3.792 5.424l.816-.944c-1.696-1.2-2.928-2.8-3.68-4.816a14.424 14.424 0 0 0 2.752-1.424l-.784-.784a15.117 15.117 0 0 1-4.24 1.936 7.482 7.482 0 0 0-1.344-1.872c.432-.256.864-.544 1.312-.848h3.664v-1.072h-9.584v1.072h4.24a19.72 19.72 0 0 1-1.648.8c-1.232.528-2.624.96-4.16 1.296l.592.944c1.792-.512 3.248-1.024 4.352-1.536.112-.064.224-.112.352-.176.224.256.448.528.64.832-1.456 1.12-3.536 2.016-6.224 2.72l.576.992c2.592-.736 4.64-1.696 6.144-2.88.192.384.336.784.464 1.2-1.744 1.44-4.208 2.608-7.376 3.536l.576.992c2.896-.88 5.232-2.016 7.024-3.424.032.256.048.512.064.8 0 .992-.144 1.664-.432 2.016-.24.272-.832.416-1.776.432h-.768l.384 1.008h.544c1.376 0 2.272-.288 2.656-.832.336-.48.512-1.36.512-2.624a8.497 8.497 0 0 0-.416-2.496c.32-.08.656-.176.976-.272zm-2.32-8.544-1.168.208c.192.384.384.832.56 1.312h-6.336v2.784h1.136v-1.712h11.232v1.712h1.136v-2.784h-6.016a16.427 16.427 0 0 0-.544-1.52zm11.024 6.832h3.936v2.4h-3.936v-2.4zm3.936 3.472v2.144c0 1.392.64 2.096 1.952 2.096h4.112c.752 0 1.264-.144 1.552-.416.288-.288.464-1.12.56-2.48l-1.088-.368c-.064 1.088-.176 1.712-.336 1.904-.192.176-.48.272-.88.272h-3.648c-.704 0-1.056-.4-1.056-1.184v-1.968h5.184V70.54h-5.184v-2.192h-1.168v2.192h-5.088v9.328h1.152v-1.36h3.936zm1.168-1.072v-2.4h4.048v2.4h-4.048zm4.048-3.456h-4.048v-2.352h4.048v2.352zm-5.216-2.352v2.352h-3.936v-2.352h3.936zm9.856 3.568v1.12h6.736v4.752c0 .48-.256.736-.768.736a64.28 64.28 0 0 1-2.576-.048l.304 1.12h2.736c.976 0 1.472-.48 1.472-1.44v-5.12h6.08v-1.12h-6.08v-1.68a30.942 30.942 0 0 0 4.336-3.408V69.02h-10.56v1.088h8.992a24.325 24.325 0 0 1-3.936 2.816v2.272h-6.736zm15.92-4.976v1.104h14.16V70.22h-6.304a19.87 19.87 0 0 0-.928-2.016l-1.28.224c.352.544.672 1.136.96 1.792h-6.608zm9.6 1.584-.784.752c1.872 1.536 3.344 2.96 4.4 4.304l.848-.848c-1.2-1.408-2.688-2.8-4.464-4.208zm.16 2.992a12.883 12.883 0 0 1-2.672 3.536 11.912 11.912 0 0 1-2.768-3.424l-.992.56a14.205 14.205 0 0 0 2.88 3.616c-1.68 1.28-3.776 2.24-6.304 2.88l.704 1.056c2.56-.672 4.736-1.728 6.528-3.168 1.728 1.344 3.888 2.368 6.48 3.104l.72-1.072c-2.496-.64-4.592-1.568-6.32-2.816 1.104-1.072 2.032-2.336 2.8-3.808l-1.056-.464zm-5.312-2.976c-1.2 1.504-2.672 2.8-4.416 3.92l.736.976c1.792-1.184 3.296-2.576 4.512-4.16l-.832-.736zm15.984 2.72c-.896 1.184-2.32 2.144-4.256 2.912l.624 1.024a14.508 14.508 0 0 0 2.752-1.616h2.448c-1.008 1.344-2.656 2.448-4.96 3.296l.72.88c2.512-.992 4.32-2.384 5.44-4.176h2.112c-1.232 2.528-3.264 4.224-6.08 5.12l.656.96c3.024-.992 5.216-3.008 6.592-6.08h1.536c-.08 2.048-.24 3.392-.496 4.032-.256.608-.768.912-1.552.912-.576 0-1.184-.016-1.824-.048l.304 1.072h2.064c.768-.032 1.312-.256 1.648-.64.336-.416.576-1.152.736-2.192.144-1.056.24-2.448.288-4.16h-8.48a9.572 9.572 0 0 0 1.024-1.296h6.288v-5.632h-9.808v5.632h2.224zm6.448-.976h-7.536v-1.376h7.536v1.376zm-7.536-2.304V69.9h7.536v1.36h-7.536zm18.56-2.304h-5.536v10.048h1.056v-8.976h3.456v8.976h1.024V68.957zm-3.28 2.24v5.2c-.032 1.456-.24 2.64-.624 3.568-.416.88-1.168 1.584-2.224 2.112l.624.96c1.12-.56 1.92-1.344 2.416-2.336.512-1.072.768-2.512.8-4.304v-5.2h-.992zm1.536 8.256-.736.72c.912.96 1.632 1.872 2.144 2.736l.816-.816a18.743 18.743 0 0 0-2.224-2.64zm6.096-3.392c.768 2.976 1.92 5.248 3.424 6.784l.784-.896c-1.392-1.376-2.464-3.328-3.2-5.888h2.896v-1.12h-5.312v-6.608h-1.12v6.608h-1.152v1.12h1.152v5.376c0 .224-.128.384-.368.496l.48 1.024c1.28-.4 2.4-.912 3.392-1.536l-.208-1.024c-.736.464-1.472.832-2.176 1.104v-5.44h1.408zm2.784-7.008c-1.024 1.712-2.256 2.992-3.696 3.824l.624.896c1.504-.864 2.832-2.208 3.952-4l-.88-.72zm14.816 2.368v3.12h-9.136v-3.12h9.136zm-9.136 4.24h10.304v-5.376h-5.056a26.958 26.958 0 0 0-.864-2.064l-1.232.192c.336.576.64 1.2.928 1.872h-5.216v5.008c-.032 2.864-.688 5.2-1.984 6.992l.848.768c1.44-2.064 2.192-4.528 2.272-7.392z"/></g><path fill="#262626" d="m493.688 239.421-.544.8c1.152.4 2.272.944 3.36 1.648l.576-.88a16.905 16.905 0 0 0-3.392-1.568zm1.424-1.632-.56.816c1.12.352 2.224.848 3.28 1.456l.592-.88a19.42 19.42 0 0 0-3.312-1.392zm4.48.048v2.544c-.032.608-.128 1.168-.32 1.68h-6.88v1.104h6.288a5.815 5.815 0 0 1-.672.752c-1.04.864-2.88 1.568-5.536 2.096l.608.976c2.656-.56 4.56-1.328 5.728-2.32.064-.064.128-.128.208-.192a30.882 30.882 0 0 1 5.792 2.56l.64-1.008a35.932 35.932 0 0 0-5.776-2.336c.112-.176.224-.352.32-.528h5.744v-1.104h-5.296a7.704 7.704 0 0 0 .256-1.68v-2.544h-1.104zm-7.024-1.664v1.04h11.536c-.256.96-.56 1.824-.944 2.592l1.088.304a22.97 22.97 0 0 0 1.024-3.232v-.704h-5.648v-1.536h4.672v-1.04h-4.672v-1.264h-1.12v1.264h-4.768v1.04h4.768v1.536h-5.936zm24.944 4.576c.768 2.192 2.032 4 3.792 5.424l.816-.944c-1.696-1.2-2.928-2.8-3.68-4.816a14.424 14.424 0 0 0 2.752-1.424l-.784-.784a15.117 15.117 0 0 1-4.24 1.936 7.482 7.482 0 0 0-1.344-1.872c.432-.256.864-.544 1.312-.848h3.664v-1.072h-9.584v1.072h4.24a19.72 19.72 0 0 1-1.648.8c-1.232.528-2.624.96-4.16 1.296l.592.944c1.792-.512 3.248-1.024 4.352-1.536.112-.064.224-.112.352-.176.224.256.448.528.64.832-1.456 1.12-3.536 2.016-6.224 2.72l.576.992c2.592-.736 4.64-1.696 6.144-2.88.192.384.336.784.464 1.2-1.744 1.44-4.208 2.608-7.376 3.536l.576.992c2.896-.88 5.232-2.016 7.024-3.424.032.256.048.512.064.8 0 .992-.144 1.664-.432 2.016-.24.272-.832.416-1.776.432h-.768l.384 1.008h.544c1.376 0 2.272-.288 2.656-.832.336-.48.512-1.36.512-2.624a8.497 8.497 0 0 0-.416-2.496c.32-.08.656-.176.976-.272zm-2.32-8.544-1.168.208c.192.384.384.832.56 1.312h-6.336v2.784h1.136v-1.712h11.232v1.712h1.136v-2.784h-6.016a16.427 16.427 0 0 0-.544-1.52zm-21.44 24.144c-.432 1.952-1.136 3.712-2.112 5.312l.928.592c.56-.912 1.056-1.92 1.472-3.024h3.488v-1.104h-3.104c.16-.496.304-1.008.448-1.552l-1.12-.224zm-.416 4.88v1.056h1.072v2.096h-2.352v1.072h2.352v3.712c0 .224-.176.384-.528.48l.448.944c1.184-.304 2.24-.688 3.152-1.168l-.192-.992c-.608.32-1.2.592-1.792.784v-3.76h2.208v-1.072h-2.208v-2.096h1.68v-1.056h-3.84zm6.192-.352h4.576v1.824h-4.576v-1.824zm4.576-1.024h-4.576v-1.856h4.576v1.856zm1.312 4.72c-.704.8-1.44 1.408-2.208 1.824-.416-.8-.704-1.68-.88-2.656h2.832v-6.784h-6.72v12.464c0 .16-.128.272-.352.352l.24.96c1.696-.416 3.104-.864 4.224-1.328l-.256-1.008c-.912.4-1.84.72-2.768.976v-5.632h1.776c.512 3.024 1.984 5.392 4.432 7.12l.608-.976c-1.088-.72-1.968-1.584-2.624-2.608.896-.448 1.712-1.104 2.432-1.968l-.736-.736zm8.384-7.232v1.136h7.664v-1.136H513.8zm-.432 4.064v1.136h5.04v6.704c0 .416-.272.624-.784.624-.704 0-1.424-.032-2.192-.08l.24 1.136h2.352c1.024 0 1.552-.464 1.552-1.392v-6.992h2.592v-1.136h-8.8zm-2.096-4.944c-.752 1.504-1.952 2.848-3.616 4.032l.336 1.152c1.984-1.36 3.424-2.928 4.32-4.704l-1.04-.48zm.752 3.648c-.896 1.776-2.32 3.344-4.272 4.72l.336 1.152a20.387 20.387 0 0 0 2.096-1.664v6.672h1.136v-7.84c.704-.8 1.28-1.664 1.744-2.56l-1.04-.48zm17.808-3.152h-5.536v10.048h1.056v-8.976h3.456v8.976h1.024v-10.048zm-3.28 2.24v5.2c-.032 1.456-.24 2.64-.624 3.568-.416.88-1.168 1.584-2.224 2.112l.624.96c1.12-.56 1.92-1.344 2.416-2.336.512-1.072.768-2.512.8-4.304v-5.2h-.992zm1.536 8.256-.736.72c.912.96 1.632 1.872 2.144 2.736l.816-.816a18.743 18.743 0 0 0-2.224-2.64zm6.096-3.392c.768 2.976 1.92 5.248 3.424 6.784l.784-.896c-1.392-1.376-2.464-3.328-3.2-5.888h2.896v-1.12h-5.312v-6.608h-1.12v6.608h-1.152v1.12h1.152v5.376c0 .224-.128.384-.368.496l.48 1.024c1.28-.4 2.4-.912 3.392-1.536l-.208-1.024c-.736.464-1.472.832-2.176 1.104v-5.44h1.408zm2.784-7.008c-1.024 1.712-2.256 2.992-3.696 3.824l.624.896c1.504-.864 2.832-2.208 3.952-4l-.88-.72zm14.816 2.368v3.12h-9.136v-3.12h9.136zm-9.136 4.24h10.304v-5.376h-5.056a26.958 26.958 0 0 0-.864-2.064l-1.232.192c.336.576.64 1.2.928 1.872h-5.216v5.008c-.032 2.864-.688 5.2-1.984 6.992l.848.768c1.44-2.064 2.192-4.528 2.272-7.392z"/><path fill="#914669" d="M536.008 246.973c1.024 0 1.552-.608 1.552-1.792v-12.384h-13.12v14.224h1.52v-12.752h10.08v10.576c0 .448-.176.672-.528.672l-2.016-.064.416 1.52h2.096zm-9.088-11.184v1.408h8.16v-1.408h-8.16zm.832 2.864v5.36h6.512v-5.36h-6.512zm5.04 4h-3.568v-2.64h3.568v2.64zm12.08 3.488h6.768v.848h1.536v-6.96h-6.128c2.704-1.344 4.576-3.04 5.616-5.072v-1.344h-6c.272-.384.512-.784.736-1.2l-1.664-.192c-.96 1.648-2.784 3.04-5.488 4.192l1.024 1.312c1.664-.8 3.024-1.696 4.112-2.688h5.536c-.704 1.152-1.776 2.176-3.232 3.056-.656-.56-1.536-1.184-2.656-1.872l-1.312.816c1.088.624 1.984 1.216 2.656 1.76-1.792.832-4.016 1.488-6.688 2l.8 1.472a48.894 48.894 0 0 0 2.864-.768v5.488h1.52v-.848zm6.768-1.472h-6.768v-3.232h6.768v3.232z"/><path stroke="#FF5A5F" stroke-linecap="round" stroke-linejoin="round" stroke-width="1.823" d="M505.103 208.825h7.179-7.179zm0-4.103h12.307-12.307zM501 196.517h32.821H501zm32.821-3.419v17.094c0 .944-.817 1.71-1.824 1.71h-29.174c-1.006 0-1.823-.766-1.823-1.71v-17.094c0-.943.817-1.709 1.823-1.709h29.174c1.007 0 1.824.766 1.824 1.709z" clip-rule="evenodd"/><path fill="#fff" fill-rule="evenodd" stroke="#FF5A5F" stroke-linecap="round" stroke-linejoin="round" stroke-width="1.791" d="m540.971 200.993-7.165-4.476-7.165 4.476c.193 8.058 3.541 11.726 7.165 13.431 3.539-1.876 7.358-5.373 7.165-13.431z" clip-rule="evenodd"/><path stroke="#FF5A5F" stroke-linecap="round" stroke-linejoin="round" stroke-width="1.791" d="m537.389 203.679-4.479 4.479-1.791-1.792"/><path fill="#262626" fill-rule="evenodd" d="M68.337 20.885c-.787-1.107-2.654-.925-3.648-.196-1.483 1.089-1.58 3.184-1.329 4.847.265 1.756 1.117 3.411 2.612 4.421 1.407.95 3.347 1.185 4.775.157.477-.343.018-1.143-.465-.796-2.407 1.733-5.159-.725-5.822-3.04-.347-1.214-.49-2.777.064-3.949.28-.593.74-1.045 1.387-1.206.456-.112 1.314-.218 1.63.228.342.479 1.141.019.796-.466z" clip-rule="evenodd"/><path fill="#262626" fill-rule="evenodd" d="M69.164 23.516c-.802-.968-2.233-1.503-3.435-.988-1.302.558-2.205 2.04-2.247 3.43-.017.593.905.592.922 0 .03-.99.679-2.082 1.578-2.537.899-.454 1.94.034 2.53.747.38.457 1.028-.198.652-.652z" clip-rule="evenodd"/><mask id="e" width="8" height="11" x="89" y="20" maskUnits="userSpaceOnUse" style="mask-type:alpha"><path fill="#fff" fill-rule="evenodd" d="M89.003 20.099h7.694v10.685h-7.694V20.1z" clip-rule="evenodd"/></mask><g mask="url(#e)"><path fill="#262626" fill-rule="evenodd" d="M92.41 21.35c.303-.427 1.096-.342 1.544-.246.616.132 1.084.51 1.393 1.055.666 1.175.501 2.871.144 4.119-.663 2.317-3.414 4.773-5.822 3.04-.482-.347-.942.452-.465.796 1.392 1.002 3.28.805 4.676-.09 1.553-.994 2.443-2.698 2.71-4.488.247-1.647.161-3.708-1.282-4.81-.99-.758-2.894-.967-3.695.159-.344.485.455.945.797.466z" clip-rule="evenodd"/></g><path fill="#262626" fill-rule="evenodd" d="M91.439 24.168c.594-.717 1.627-1.194 2.531-.746.9.445 1.548 1.554 1.578 2.535.017.592.939.594.92 0-.04-1.389-.943-2.872-2.246-3.43-1.203-.514-2.633.02-3.435.99-.376.453.273 1.109.652.65zM80.075 37.326h-.225c-.241.003-.472.21-.46.46.01.25.201.462.46.462h.225c.241 0 .472-.212.46-.461a.47.47 0 0 0-.46-.461h-.225v.922h.225c.241.003.472-.214.46-.461a.47.47 0 0 0-.46-.461z" clip-rule="evenodd"/><path fill="#262626" fill-rule="evenodd" d="M79.962 1.53c-3.473.017-7.07.862-9.563 3.433-1.844 1.9-2.828 4.453-3.207 7.042a20.635 20.635 0 0 0-.05 5.56 48.132 48.132 0 0 0 2.967 11.61c1.477 3.739 3.46 7.76 7.72 8.807 2.2.542 4.62.229 6.567-.95 1.606-.975 2.815-2.47 3.716-4.097 2.46-4.442 3.868-9.658 4.565-14.66.199-1.427.236-2.877.137-4.313-.174-2.524-.777-5.087-2.135-7.248-1.709-2.719-4.504-4.381-7.64-4.927a18.48 18.48 0 0 0-3.077-.257c-.594-.003-.594.918 0 .921 3.307.017 6.655.879 8.933 3.414 1.657 1.842 2.498 4.277 2.85 6.695a20.481 20.481 0 0 1 .057 5.364c-.022.184.007-.044-.012.092a47.275 47.275 0 0 1-2.811 10.78c-1.43 3.651-3.374 7.66-7.654 8.408-2.218.387-4.556-.194-6.282-1.65-1.318-1.113-2.24-2.594-2.974-4.137-2.025-4.262-3.242-8.832-3.951-13.484a21.17 21.17 0 0 1-.188-4.087c.121-2.299.646-4.635 1.865-6.612 1.593-2.585 4.263-4.046 7.208-4.552.977-.168 1.969-.226 2.959-.23.593-.003.594-.925 0-.922z" clip-rule="evenodd"/><path fill="#262626" fill-rule="evenodd" d="M74.487 36.274c.353 1.56.392 3.18-.218 4.685-.522 1.284-1.424 2.374-2.431 3.309-2.123 1.968-4.763 3.267-6.921 5.196-.444.397.21 1.047.651.652 2.395-2.14 5.401-3.517 7.61-5.88 2.162-2.314 2.897-5.12 2.197-8.207-.13-.578-1.02-.334-.888.245zm20.888 13.191c-2.158-1.93-4.8-3.229-6.92-5.198-.966-.895-1.831-1.93-2.365-3.143-.68-1.542-.651-3.235-.285-4.85.13-.577-.758-.824-.889-.245-.699 3.086.036 5.893 2.198 8.207 2.208 2.362 5.214 3.74 7.61 5.88.44.395 1.094-.255.65-.651z" clip-rule="evenodd"/><mask id="f" width="37" height="24" x="60" y="0" maskUnits="userSpaceOnUse" style="mask-type:alpha"><path fill="#fff" fill-rule="evenodd" d="M60 0h36.252v23.842H60V0z" clip-rule="evenodd"/></mask><g mask="url(#f)"><path fill="#262626" fill-rule="evenodd" d="M80.476 10.953c-.114-.227-5.625 12.136-15.509 10.754 0 0-2.764-.105-4.148-1.82l4.814-2.584S61.64 17.61 60 15.869l4.865-3.175S65.48-1.594 80.689.147c0 0 15.319-1.229 15.546 12.7 0 0 .59 5.5-5.122 10.995 0 0 3.147-6.744-.49-9.407-3.635-2.663-8.106.563-10.147-3.482z" clip-rule="evenodd"/></g><path fill="#262626" fill-rule="evenodd" d="M79.359 18.572c-.526 1.897-1.103 3.81-1.424 5.757-.244 1.48.071 2.886 1.278 3.857.458.368 1.114-.28.651-.652-1.35-1.087-1.152-2.54-.817-4.068.344-1.564.773-3.107 1.201-4.649.16-.572-.73-.817-.889-.245zm-4.662 1.035v3.841c0 .593.922.594.922 0v-3.841c0-.593-.922-.594-.922 0zm9.218 0v3.841c0 .593.922.594.922 0v-3.841c0-.593-.922-.594-.922 0zm3.885-2.81c-1.367-1.198-3.794-2.548-5.397-1.006-.429.412.223 1.063.651.651 1.17-1.124 3.142.173 4.094 1.007.445.39 1.098-.26.652-.652zM78.208 32.05c1.662.295 3.268.1 4.814-.573.542-.237.073-1.03-.466-.796a7.106 7.106 0 0 1-4.104.481c-.58-.103-.828.785-.244.889zm-5.252-3.66h-.051c-.12 0-.236.105-.23.23.005.125.101.23.23.23h.051c.12 0 .236-.105.23-.23a.235.235 0 0 0-.23-.23zm-.051-1.024c.297 0 .297-.461 0-.461-.296 0-.297.46 0 .46zm1.69.307h-.102c-.12 0-.236.106-.23.23.005.125.1.23.23.23h.102c.12 0 .236-.105.23-.23a.235.235 0 0 0-.23-.23zm10.418.563c.296 0 .296-.46 0-.46-.297 0-.297.46 0 .46zm1.05-1.51v.05c0 .121.105.237.23.23.124-.004.23-.1.23-.23v-.05c0-.12-.106-.236-.23-.23a.234.234 0 0 0-.23.23zm.153 1.587v.051c0 .12.106.236.23.23a.235.235 0 0 0 .23-.23v-.051c0-.12-.105-.236-.23-.23a.235.235 0 0 0-.23.23zM72.093 44.655l7.982 6.728 7.818-7.015 8.748 5.94s-3.791 8.22-16.453 8.22c-12.66 0-16.885-8.373-16.885-8.373l8.79-5.5z" clip-rule="evenodd"/><mask id="g" width="29" height="29" x="85.52" y="35.122" fill="#000" maskUnits="userSpaceOnUse"><path fill="#fff" d="M85.52 35.122h29v29h-29z"/><path fill-rule="evenodd" d="M99.765 38.122c6.111 0 11.245 5.133 11.245 11.245 0 6.355-5.134 11.49-11.245 11.49-6.356 0-11.245-5.135-11.245-11.49 0-6.112 4.89-11.245 11.245-11.245zm5.378 13.69c.245 2.444-1.711 3.422-4.156 3.666 0 .733.245 1.711-.733 1.711-1.222 0-.978-.978-.978-1.711-1.467 0-2.933-.489-3.667-1.711-1.466-1.956.734-3.667 1.956-1.711 1.222 2.2 4.645 1.955 4.645.244 0-2.689-7.09-.978-7.09-5.378 0-2.2 2.2-3.178 4.156-3.422 0-.734-.244-1.712.978-1.712.978 0 .733 1.223.733 1.956 1.223 0 2.689.489 3.423 1.711.978 1.467-.978 2.445-1.956 1.712-.978-.978-.978-1.712-2.689-1.712-.733 0-1.711.245-1.711 1.223-.245 2.2 6.845 1.222 7.089 5.133z" clip-rule="evenodd"/></mask><path fill="#262626" fill-rule="evenodd" d="M99.765 38.122c6.111 0 11.245 5.133 11.245 11.245 0 6.355-5.134 11.49-11.245 11.49-6.356 0-11.245-5.135-11.245-11.49 0-6.112 4.89-11.245 11.245-11.245zm5.378 13.69c.245 2.444-1.711 3.422-4.156 3.666 0 .733.245 1.711-.733 1.711-1.222 0-.978-.978-.978-1.711-1.467 0-2.933-.489-3.667-1.711-1.466-1.956.734-3.667 1.956-1.711 1.222 2.2 4.645 1.955 4.645.244 0-2.689-7.09-.978-7.09-5.378 0-2.2 2.2-3.178 4.156-3.422 0-.734-.244-1.712.978-1.712.978 0 .733 1.223.733 1.956 1.223 0 2.689.489 3.423 1.711.978 1.467-.978 2.445-1.956 1.712-.978-.978-.978-1.712-2.689-1.712-.733 0-1.711.245-1.711 1.223-.245 2.2 6.845 1.222 7.089 5.133z" clip-rule="evenodd"/><path fill="#fff" d="m105.143 51.811-2.711.17.003.05.005.05 2.703-.27zm-4.156 3.667-.27-2.703-2.446.245v2.458h2.716zm-1.71 0h2.715v-2.716h-2.716v2.716zm-3.668-1.711 2.33-1.398-.073-.12-.084-.112-2.173 1.63zm1.956-1.711 2.374-1.32-.034-.06-.037-.06-2.303 1.44zm1.711-8.556.337 2.695 2.379-.297V43.5h-2.716zm1.711.244h-2.716v2.716h2.716v-2.716zm3.423 1.711-2.329 1.398.033.055.036.054 2.26-1.507zm-1.956 1.712-1.921 1.92.137.137.154.116 1.63-2.174zm-4.4-.49 2.699.3.017-.149v-.15h-2.716zm1.711-5.84c4.611 0 8.529 3.918 8.529 8.53h5.432c0-7.612-6.349-13.961-13.961-13.961v5.432zm8.529 8.53c0 4.894-3.955 8.773-8.529 8.773v5.432c7.649 0 13.961-6.388 13.961-14.205h-5.432zm-8.529 8.773c-4.78 0-8.529-3.84-8.529-8.773h-5.432c0 7.779 6.03 14.205 13.961 14.205V58.14zm-8.529-8.773c0-4.65 3.712-8.53 8.529-8.53v-5.431c-7.894 0-13.961 6.388-13.961 13.96h5.432zm11.204 2.715c.023.228-.017.278.002.234.02-.047.043-.05-.012-.009-.07.054-.233.15-.541.247a5.967 5.967 0 0 1-1.172.221l.541 5.406c1.423-.143 3.111-.524 4.459-1.549 1.542-1.171 2.342-2.961 2.129-5.091l-5.406.54zm-4.169 3.396c0 .245.023.641.025.683.007.167-.007.105.019-.038.029-.158.15-.668.649-1.117.526-.474 1.083-.533 1.29-.533v5.432c.696 0 1.589-.181 2.344-.861.728-.655.972-1.455 1.062-1.95.087-.48.073-.922.064-1.146-.013-.347-.021-.348-.021-.47h-5.432zm1.983-1.005c.03 0 .422.003.878.319.502.347.718.818.795 1.102.06.22.043.347.046.214l.008-.226c.005-.096.011-.246.011-.404H96.56c0 .025-.001.066-.005.164-.004.079-.01.22-.014.36-.005.256-.006.765.145 1.321.17.62.553 1.381 1.353 1.935.754.522 1.574.647 2.215.647v-5.432zm-.978-1.711c-.45 0-.804-.078-1.038-.178-.216-.092-.278-.178-.3-.215l-4.658 2.795c1.437 2.395 4.078 3.03 5.996 3.03v-5.432zm-1.494-.625c-.054-.073.07.061.055.39a1.42 1.42 0 0 1-.532 1.014 1.624 1.624 0 0 1-1.393.325c-.494-.117-.67-.401-.65-.37l4.606-2.88c-.592-.947-1.5-1.751-2.705-2.036a3.81 3.81 0 0 0-3.311.768c-1.908 1.571-1.796 4.208-.416 6.049l4.346-3.26zm-2.591 1.238c1.181 2.127 3.364 2.986 5.155 2.986.901 0 1.933-.212 2.828-.816.966-.65 1.752-1.775 1.752-3.245h-5.433c0-.257.07-.535.215-.787.14-.242.309-.39.429-.472.215-.145.316-.113.209-.113-.226 0-.366-.118-.407-.191l-4.748 2.638zm9.735-1.075a3.909 3.909 0 0 0-.987-2.622c-.565-.64-1.248-1.006-1.762-1.228-.921-.397-2.201-.664-2.832-.827-.873-.226-1.287-.405-1.483-.552-.014-.01-.025.06-.025-.149h-5.433c0 1.991.875 3.498 2.19 4.489 1.134.853 2.491 1.239 3.39 1.471 1.142.296 1.634.38 2.043.556.15.065.022.04-.156-.161a1.527 1.527 0 0 1-.378-.977h5.433zm-7.09-5.378a.386.386 0 0 1 .004-.06v.003s.008-.015.033-.041a.924.924 0 0 1 .138-.113c.314-.218.885-.426 1.602-.516l-.674-5.39c-1.238.154-2.745.556-4.02 1.44-1.364.943-2.515 2.504-2.515 4.677h5.433zm4.156-3.422c0-.159-.006-.308-.011-.405a8.686 8.686 0 0 1-.008-.225c-.003-.134.014-.006-.046.214a2.01 2.01 0 0 1-.795 1.102c-.456.316-.848.319-.878.319v-5.433c-.641 0-1.46.126-2.215.647a3.423 3.423 0 0 0-1.353 1.935 4.664 4.664 0 0 0-.145 1.322c.003.14.01.28.014.36.004.097.005.139.005.164h5.432zm-1.738 1.005c-.16 0-.41-.026-.699-.142-.3-.12-.57-.309-.784-.545-.399-.439-.462-.87-.468-.914-.01-.065 0-.055-.007.13-.003.09-.008.162-.013.29a9.172 9.172 0 0 0-.012.42h5.432c0-.132.009-.147.022-.52a6.146 6.146 0 0 0-.053-1.146c-.068-.44-.253-1.223-.881-1.914-.719-.791-1.672-1.092-2.537-1.092v5.433zm.733 1.955c.272 0 .558.058.78.158.211.095.286.189.314.235l4.658-2.795c-1.406-2.343-3.99-3.03-5.752-3.03v5.432zm1.163.502c-.076-.114-.273-.516-.152-1.084.113-.53.426-.841.628-.98a1.08 1.08 0 0 1 .582-.198 1.39 1.39 0 0 1 .876.294l-3.26 4.346c1.621 1.215 3.652.878 4.88.034.691-.475 1.371-1.26 1.607-2.363.243-1.14-.076-2.215-.641-3.062l-4.52 3.013zm2.225-1.716a4.936 4.936 0 0 1-.388-.451c-.129-.163-.414-.532-.775-.86-.975-.887-2.13-1.196-3.447-1.196v5.433c.247 0 .26.028.157-.006a1.075 1.075 0 0 1-.365-.212c-.026-.024-.027-.03.006.01.04.045.083.1.174.215.166.208.433.545.796.908l3.842-3.841zm-4.61-2.507c-.589 0-1.532.086-2.431.576-1.073.586-1.996 1.734-1.996 3.363h5.432c0 .23-.065.55-.267.865a1.607 1.607 0 0 1-.568.541.828.828 0 0 1-.224.09c-.006.001.014-.002.054-.002v-5.433zm-4.41 3.639a3.566 3.566 0 0 0 .897 2.8c.55.617 1.221.965 1.679 1.166.848.373 2.069.674 2.72.865.866.254 1.381.466 1.676.675.119.085.133.123.119.099-.024-.039-.017-.06-.014-.002l5.422-.34c-.123-1.964-1.17-3.327-2.385-4.189-1.096-.776-2.383-1.19-3.29-1.456-1.121-.328-1.642-.44-2.062-.625-.176-.077-.021-.044.187.19.302.337.511.865.449 1.417l-5.399-.6z" mask="url(#g)"/><path fill="#262626" d="m25.464 72.68-.56.817c1.136.448 2.24 1.088 3.312 1.888l.592-.928a17.933 17.933 0 0 0-3.344-1.776zm1.472-2.24-.544.817c1.12.448 2.192 1.088 3.248 1.888l.592-.912a16.241 16.241 0 0 0-3.296-1.792zm4.416 0v3.36a9.543 9.543 0 0 1-.384 2.417h-6.816v1.12h6.352c-.192.4-.432.768-.72 1.12-1.056 1.136-2.896 2.048-5.552 2.736l.656 1.024c2.64-.704 4.544-1.696 5.712-2.96.08-.096.16-.208.24-.304 2.112.96 4.16 2.08 6.144 3.344l.784-.864c-1.904-1.216-4.016-2.32-6.352-3.344.128-.24.256-.496.368-.752h6.336v-1.12h-5.952a12.26 12.26 0 0 0 .32-2.416v-3.36h-1.136zm-6.592-1.903v1.072h10.992c-.224.8-.496 1.536-.832 2.192l1.088.304c.384-.944.704-1.888.944-2.848v-.72H24.76zm24.752 7.488c.768 2.192 2.032 4 3.792 5.424l.816-.944c-1.696-1.2-2.928-2.8-3.68-4.816a14.424 14.424 0 0 0 2.752-1.424l-.784-.784a15.117 15.117 0 0 1-4.24 1.936 7.482 7.482 0 0 0-1.344-1.872c.432-.256.864-.544 1.312-.848H51.8v-1.072h-9.584v1.072h4.24a19.72 19.72 0 0 1-1.648.8c-1.232.528-2.624.96-4.16 1.296l.592.944c1.792-.512 3.248-1.024 4.352-1.536.112-.064.224-.112.352-.176.224.256.448.528.64.832-1.456 1.12-3.536 2.016-6.224 2.72l.576.992c2.592-.736 4.64-1.696 6.144-2.88.192.384.336.784.464 1.2-1.744 1.44-4.208 2.608-7.376 3.536l.576.992c2.896-.88 5.232-2.016 7.024-3.424.032.256.048.512.064.8 0 .992-.144 1.664-.432 2.016-.24.272-.832.416-1.776.432h-.768l.384 1.008h.544c1.376 0 2.272-.288 2.656-.832.336-.48.512-1.36.512-2.624a8.497 8.497 0 0 0-.416-2.496c.32-.08.656-.176.976-.272zm-2.32-8.544-1.168.208c.192.384.384.832.56 1.312h-6.336v2.784h1.136v-1.712h11.232v1.712h1.136V69h-6.016a16.427 16.427 0 0 0-.544-1.52zm11.024 6.832h3.936v2.4h-3.936v-2.4zm3.936 3.472v2.144c0 1.392.64 2.096 1.952 2.096h4.112c.752 0 1.264-.144 1.552-.416.288-.288.464-1.12.56-2.48l-1.088-.368c-.064 1.088-.176 1.712-.336 1.904-.192.176-.48.272-.88.272h-3.648c-.704 0-1.056-.4-1.056-1.184v-1.968h5.184v-7.968H63.32v-2.192h-1.168v2.192h-5.088v9.328h1.152v-1.36h3.936zm1.168-1.072v-2.4h4.048v2.4H63.32zm4.048-3.456H63.32v-2.352h4.048v2.352zm-5.216-2.352v2.352h-3.936v-2.352h3.936zm9.856 3.568v1.12h6.736v4.752c0 .48-.256.736-.768.736a64.28 64.28 0 0 1-2.576-.048l.304 1.12h2.736c.976 0 1.472-.48 1.472-1.44v-5.12h6.08v-1.12h-6.08v-1.68a30.942 30.942 0 0 0 4.336-3.408v-1.088h-10.56v1.088h8.992a24.325 24.325 0 0 1-3.936 2.816v2.272h-6.736zm15.92-4.976V70.6h14.16v-1.104h-6.304a19.87 19.87 0 0 0-.928-2.016l-1.28.224c.352.544.672 1.136.96 1.792h-6.608zm9.6 1.584-.784.752c1.872 1.536 3.344 2.96 4.4 4.304l.848-.848c-1.2-1.408-2.688-2.8-4.464-4.208zm.16 2.992a12.883 12.883 0 0 1-2.672 3.536 11.912 11.912 0 0 1-2.768-3.424l-.992.56a14.205 14.205 0 0 0 2.88 3.616c-1.68 1.28-3.776 2.24-6.304 2.88l.704 1.056c2.56-.672 4.736-1.728 6.528-3.168 1.728 1.344 3.888 2.368 6.48 3.104l.72-1.072c-2.496-.64-4.592-1.568-6.32-2.816 1.104-1.072 2.032-2.336 2.8-3.808l-1.056-.464zm-5.312-2.976c-1.2 1.504-2.672 2.8-4.416 3.92l.736.976c1.792-1.184 3.296-2.576 4.512-4.16l-.832-.736zm15.984 2.72c-.896 1.184-2.32 2.144-4.256 2.912l.624 1.024a14.508 14.508 0 0 0 2.752-1.616h2.448c-1.008 1.344-2.656 2.448-4.96 3.296l.72.88c2.512-.992 4.32-2.384 5.44-4.176h2.112c-1.232 2.528-3.264 4.224-6.08 5.12l.656.96c3.024-.992 5.216-3.008 6.592-6.08h1.536c-.08 2.048-.24 3.392-.496 4.032-.256.608-.768.912-1.552.912-.576 0-1.184-.016-1.824-.048l.304 1.072h2.064c.768-.032 1.312-.256 1.648-.64.336-.416.576-1.152.736-2.192.144-1.056.24-2.448.288-4.16h-8.48a9.572 9.572 0 0 0 1.024-1.296h6.288v-5.632h-9.808v5.632h2.224zm6.448-.976h-7.536v-1.376h7.536v1.376zm-7.536-2.304v-1.36h7.536v1.36h-7.536zm18.56-2.304h-5.536V78.28h1.056v-8.976h3.456v8.976h1.024V68.233zm-3.28 2.24v5.2c-.032 1.456-.24 2.64-.624 3.568-.416.88-1.168 1.584-2.224 2.112l.624.96c1.12-.56 1.92-1.344 2.416-2.336.512-1.072.768-2.512.8-4.304v-5.2h-.992zm1.536 8.256-.736.72c.912.96 1.632 1.872 2.144 2.736l.816-.816a18.743 18.743 0 0 0-2.224-2.64zm6.096-3.392c.768 2.976 1.92 5.248 3.424 6.784l.784-.896c-1.392-1.376-2.464-3.328-3.2-5.888h2.896v-1.12h-5.312v-6.608h-1.12v6.608h-1.152v1.12h1.152v5.376c0 .224-.128.384-.368.496l.48 1.024c1.28-.4 2.4-.912 3.392-1.536l-.208-1.024c-.736.464-1.472.832-2.176 1.104v-5.44h1.408zm2.784-7.008c-1.024 1.712-2.256 2.992-3.696 3.824l.624.896c1.504-.864 2.832-2.208 3.952-4l-.88-.72zm14.816 2.368v3.12h-9.136v-3.12h9.136zm-9.136 4.24h10.304V69.56h-5.056a26.958 26.958 0 0 0-.864-2.064l-1.232.192c.336.576.64 1.2.928 1.872h-5.216v5.008c-.032 2.864-.688 5.2-1.984 6.992l.848.768c1.44-2.064 2.192-4.528 2.272-7.392z"/><g fill="#FF5A5F" clip-path="url(#h)"><path d="m45.14 122.825-1.428.224c.266.434.504.91.728 1.414h-5.25v1.246h3.794c-1.036 1.498-1.876 2.422-2.534 2.786a.993.993 0 0 1-.294.112l.308 1.19c2.884-.154 5.544-.364 8.008-.616.322.476.616.952.896 1.428l1.106-.77c-.63-1.036-1.526-2.24-2.702-3.64l-1.036.644c.336.42.658.84.966 1.26-1.82.21-3.668.364-5.516.476.644-.616 1.358-1.582 2.17-2.87h6.454v-1.246h-5.026c-.21-.602-.42-1.148-.644-1.638zm-2.744 7.406c-.084 1.372-.392 2.352-.896 2.94-.532.616-1.4 1.148-2.632 1.596l.826 1.05c1.4-.588 2.408-1.26 3.01-2.044.546-.742.868-1.918.98-3.542h-1.288zm7 5.376c.504-.028.896-.154 1.176-.406.252-.252.462-1.106.602-2.562l-1.218-.392c-.07 1.12-.196 1.75-.364 1.904a.836.836 0 0 1-.546.21H47.52c-.42 0-.616-.196-.616-.588v-3.71h-1.316v3.934c0 1.064.518 1.61 1.568 1.61h2.24zm11.074-12.768c-.028.42-.07.854-.098 1.288h-3.584v1.204h3.444c-.028.308-.07.63-.126.952h-2.534v7.952h-1.386v1.204h9.254v-1.204h-1.274v-7.952h-2.758c.042-.308.084-.616.14-.952h3.486v-1.204h-3.346c.028-.364.07-.728.098-1.106l-1.316-.182zm-1.624 11.396v-.938h4.046v.938h-4.046zm0-1.988v-.896h4.046v.896h-4.046zm0-1.96v-.882h4.046v.882h-4.046zm0-1.932v-.882h4.046v.882h-4.046zm-4.494-.196v7.686h1.288v-9.87c.392-.812.728-1.666.994-2.562l-1.204-.56c-.602 2.128-1.554 4.004-2.856 5.6l.434 1.414c.476-.546.924-1.12 1.344-1.708zm-7.969-18.284c-1.708-.076-3.175-.469-4.184-1.067-.13.158-.199.313-.199.456 0 .715 1.706 1.733 4.426 1.861a8.45 8.45 0 0 1-.051-.924c0-.109.004-.218.008-.326zM42 106.764c0 .724 1.748 1.756 4.524 1.864.081-.426.193-.84.335-1.241-1.91-.019-3.559-.426-4.66-1.079-.13.158-.199.313-.199.456zm5-1.875c-1.971 0-3.673-.412-4.801-1.081-.13.158-.199.313-.199.456 0 .764 1.948 1.875 5 1.875.145 0 .285-.005.426-.01.256-.463.553-.899.889-1.304-.422.042-.861.064-1.315.064zm0-1.25c1.26 0 2.328-.191 3.153-.467a8.45 8.45 0 0 1 1.489-.788c.234-.213.358-.428.358-.62 0-.143-.068-.298-.199-.456-1.128.669-2.83 1.081-4.801 1.081s-3.673-.412-4.801-1.081c-.13.158-.199.313-.199.456 0 .764 1.948 1.875 5 1.875zm0-2.5c3.052 0 5-1.111 5-1.875 0-.765-1.948-1.875-5-1.875s-5 1.11-5 1.875c0 .764 1.948 1.875 5 1.875z"/><path fill-rule="evenodd" d="M47.625 110.201c0-3.963 3.224-7.187 7.188-7.187 3.963 0 7.187 3.224 7.187 7.187a7.195 7.195 0 0 1-7.188 7.188c-3.963 0-7.187-3.224-7.187-7.188zm7.813 5.056v-.75c1.82-.349 2.576-1.522 2.499-2.63-.101-1.44-1.276-2.008-2.5-2.341v-2.517c.701.004 1.176.151 1.365.223a.625.625 0 1 0 .447-1.167c-.317-.122-.94-.302-1.812-.306v-.623a.625.625 0 0 0-1.25 0v.748c-1.591.365-2.26 1.462-2.192 2.443.088 1.249 1.08 1.821 2.193 2.161v2.86c-.67-.019-1.285-.161-1.626-.314a.626.626 0 0 0-.51 1.142c.566.252 1.36.404 2.136.422v.649a.625.625 0 0 0 1.25 0z" clip-rule="evenodd"/><path d="M53.242 108.25c.022.306.171.624.946.925v-1.978c-.611.212-.978.596-.946 1.053zm2.196 2.59v2.39c.827-.213 1.294-.667 1.252-1.266-.026-.374-.156-.765-1.252-1.124z"/></g><g fill="#FF5A5F" clip-path="url(#i)"><path fill-rule="evenodd" d="M560 111.464h-3.555c.013-.026.023-.054.034-.081l.019-.048.012-.026c.013-.032.027-.062.038-.094a2.09 2.09 0 0 0 .075-.268l.011-.041c.004-.016.009-.032.012-.049.021-.12.032-.243.033-.365l-.002-.049a2.351 2.351 0 0 0-.028-.322 2.435 2.435 0 0 0-.019-.091l-.009-.037a2.353 2.353 0 0 0-.066-.236c-.015-.042-.03-.084-.048-.126a2.077 2.077 0 0 0-.137-.269c-.012-.022-.024-.044-.038-.066a2.027 2.027 0 0 0-.236-.302l-3.607-3.77a3.218 3.218 0 0 0-1.906-.683h-4.139c-.337-.704-1.024-1.149-1.777-1.152H544c-1.105 0-2 .936-2 2.09v6.03c0 1.154.895 2.09 2 2.09h.667a1.975 1.975 0 0 0 1.638-.898l3.922 3.52a.652.652 0 0 0 .434.168H560c1.104-.002 1.998-.937 2-2.09v-.745c0-1.155-.895-2.09-2-2.09zm-15.333.742H544c-.368 0-.667-.312-.667-.697v-6.03c0-.385.299-.697.667-.697h.667c.368 0 .666.312.666.697v6.03c0 .385-.298.697-.666.697zM560 114.993c.366-.006.661-.315.667-.697v-.743c0-.385-.299-.697-.667-.697h-3.507a3.556 3.556 0 0 1-1.109-.202 1.93 1.93 0 0 1-2.587-.209l-2.273-2.377a.716.716 0 0 1-.189-.681.68.68 0 0 1 .48-.502.65.65 0 0 1 .652.198l2.273 2.376c.265.26.678.26.943 0l.09-.094.378-.395a.71.71 0 0 0 .197-.493.712.712 0 0 0-.197-.494l-3.606-3.769a2.311 2.311 0 0 0-1.012-.279h-3.866v5.253l4.241 3.805H560zm1-17.604c3.261 0 6 2.71 6 5.935 0 3.355-2.739 6.065-6 6.065-3.391 0-6-2.71-6-6.065 0-3.225 2.609-5.935 6-5.935zm2.364 7.253c.112 1.318-.786 1.846-1.91 1.978 0 .395.113.923-.337.923-.561 0-.449-.528-.449-.923-.674 0-1.348-.264-1.685-.923-.674-1.055.337-1.978.899-.923.561 1.186 2.134 1.054 2.134.131 0-1.45-3.258-.527-3.258-2.901 0-1.187 1.011-1.714 1.91-1.846 0-.395-.112-.923.449-.923.45 0 .337.66.337 1.055.562 0 1.236.264 1.573.923.449.791-.449 1.319-.899.923-.449-.527-.449-.923-1.235-.923-.337 0-.787.132-.787.659-.112 1.187 3.146.66 3.258 2.77z" clip-rule="evenodd"/><path d="M543.296 134.705c.91 0 1.372-.462 1.372-1.358v-3.92c.35-.168.7-.35 1.064-.532v-1.358c-.35.196-.7.378-1.064.546v-2.324h1.302v-1.274h-1.302v-2.534h-1.344v2.534h-1.582v1.274h1.582v2.884c-.588.21-1.176.392-1.778.532l.322 1.344c.49-.168.98-.336 1.456-.518v2.996c0 .322-.168.49-.49.49-.336 0-.7-.028-1.064-.07l.294 1.288h1.232zm3.626-12.362v5.054h6.3v-5.054h-6.3zm4.998 3.976h-3.71v-.952h3.71v.952zm-3.71-1.96v-.938h3.71v.938h-3.71zm-2.198 3.766v1.19h3.416v3.654l-.126-.042c-.546-.224-1.022-.756-1.442-1.568.098-.462.168-.938.196-1.442l-1.176-.14c-.112 1.54-.672 2.926-1.68 4.186l.994.854a9.162 9.162 0 0 0 1.26-2.142c.392.644.84 1.092 1.33 1.344.686.336 1.96.504 3.822.518.448.014.938.028 1.484.028l.364-1.288c-.532.056-1.176.084-1.932.084-.7 0-1.302-.042-1.82-.098v-1.484h2.758v-1.176h-2.758v-1.288h3.36v-1.19h-8.05zm21.406-5.74h-6.468v7.882h1.316v-6.608h3.808v6.608h1.344v-7.882zm-.42 12.222c.476 0 .826-.112 1.064-.322.238-.238.406-.952.504-2.142l-1.232-.406c-.042.798-.112 1.274-.196 1.442a.413.413 0 0 1-.378.21h-.826c-.252 0-.364-.14-.364-.42v-2.758h-1.092c.154-.686.252-1.456.28-2.324v-3.346h-1.274v3.346c-.056 1.512-.35 2.744-.896 3.696-.546.868-1.582 1.61-3.122 2.198l.728 1.12c1.568-.574 2.702-1.386 3.388-2.45.252-.406.476-.882.658-1.414v2.212c0 .896.434 1.358 1.302 1.358h1.456zm-11.158-7.63v1.288h1.498v3.178c-.588.154-1.176.28-1.778.392l.322 1.274a34.252 34.252 0 0 0 4.48-1.428v-1.274c-.546.224-1.106.434-1.68.63v-2.772h1.456v-1.288h-1.456v-2.968h1.652v-1.274h-4.676v1.274h1.68v2.968h-1.498z"/></g><path fill="#FF5A5F" d="m87.5 90.714.005-1-2-.01-.005 1 2 .01zM86 185.389l5.826-9.969-11.547-.061L86 185.389zm-.5-94.686-.453 85.681 2 .01.453-85.68-2-.01zM522 185.394l-.005 1-2-.01.005-1 2 .01zm-.5-94.685 5.721 10.03-11.547-.061 5.826-9.97zm-1.5 94.675.452-85.68 2 .01-.452 85.68-2-.01z"/><path fill="#262626" d="m237.656 246.403-.49.714c.994.392 1.96.952 2.898 1.652l.518-.812a15.692 15.692 0 0 0-2.926-1.554zm1.288-1.96-.476.714c.98.392 1.918.952 2.842 1.652l.518-.798a14.211 14.211 0 0 0-2.884-1.568zm3.864 0v2.94a8.35 8.35 0 0 1-.336 2.114h-5.964v.98h5.558c-.168.35-.378.672-.63.98-.924.994-2.534 1.792-4.858 2.394l.574.896c2.31-.616 3.976-1.484 4.998-2.59.07-.084.14-.182.21-.266 1.848.84 3.64 1.82 5.376 2.926l.686-.756c-1.666-1.064-3.514-2.03-5.558-2.926.112-.21.224-.434.322-.658h5.544v-.98h-5.208c.154-.644.252-1.344.28-2.114v-2.94h-.994zm-5.768-1.666v.938h9.618c-.196.7-.434 1.344-.728 1.918l.952.266a18.55 18.55 0 0 0 .826-2.492v-.63H237.04zm21.658 6.552c.672 1.918 1.778 3.5 3.318 4.746l.714-.826c-1.484-1.05-2.562-2.45-3.22-4.214a12.621 12.621 0 0 0 2.408-1.246l-.686-.686a13.227 13.227 0 0 1-3.71 1.694 6.547 6.547 0 0 0-1.176-1.638c.378-.224.756-.476 1.148-.742h3.206v-.938h-8.386v.938h3.71c-.448.252-.938.476-1.442.7-1.078.462-2.296.84-3.64 1.134l.518.826c1.568-.448 2.842-.896 3.808-1.344.098-.056.196-.098.308-.154.196.224.392.462.56.728-1.274.98-3.094 1.764-5.446 2.38l.504.868c2.268-.644 4.06-1.484 5.376-2.52.168.336.294.686.406 1.05-1.526 1.26-3.682 2.282-6.454 3.094l.504.868c2.534-.77 4.578-1.764 6.146-2.996.028.224.042.448.056.7 0 .868-.126 1.456-.378 1.764-.21.238-.728.364-1.554.378h-.672l.336.882h.476c1.204 0 1.988-.252 2.324-.728.294-.42.448-1.19.448-2.296a7.435 7.435 0 0 0-.364-2.184c.28-.07.574-.154.854-.238zm-2.03-7.476-1.022.182c.168.336.336.728.49 1.148h-5.544v2.436h.994v-1.498h9.828v1.498h.994v-2.436h-5.264c-.154-.49-.308-.938-.476-1.33zm14.168 6.916h1.806v1.792h-1.82c0-.126.014-.252.014-.364v-1.428zm-.084 2.674h1.89v3.094h.91v-3.094h1.876v1.876c0 .28-.14.434-.42.434-.308 0-.63-.028-.98-.056l.238.91h1.036c.714 0 1.078-.322 1.078-.952v-8.386h-2.352c.42-.42.84-.952 1.26-1.568v-.714h-3.374c.14-.28.294-.56.434-.854l-.966-.21c-.714 1.456-1.624 2.646-2.73 3.556l.63.742c.196-.168.406-.364.616-.56v4.592c-.028 1.54-.378 2.828-1.078 3.836l.728.658c.644-.896 1.036-1.988 1.204-3.304zm2.184-6.174h-2.66c.392-.434.77-.91 1.12-1.428h2.73a13.97 13.97 0 0 1-1.19 1.428zm2.492 5.292h-1.876v-1.792h1.876v1.792zm0-2.688h-1.876v-1.708h1.876v1.708zm-2.786-1.708v1.708h-1.806v-1.708h1.806zm-8.204-3.43v.98h1.582c-.322 2.03-.98 3.836-1.988 5.418l.588.938c.252-.392.504-.798.742-1.232v5.488h.952v-1.064h2.45v-6.37h-2.548c.336-.98.602-2.044.784-3.178h2.114v-.98h-4.676zm1.876 9.618v-4.536h1.526v4.536h-1.526zm19.964-10.332c0 2.716-.21 4.942-.602 6.692-.532 2.086-1.624 3.808-3.248 5.18l.686.826c1.862-1.54 3.052-3.528 3.584-5.936.07-.364.14-.728.21-1.12.784 2.772 1.918 5.124 3.416 7.028l.728-.84c-1.834-2.1-3.122-4.956-3.864-8.54.084-1.008.126-2.114.126-3.29h-1.036zm-6.51.07-.7.686c1.008.756 1.82 1.484 2.408 2.17l.686-.7c-.644-.728-1.442-1.442-2.394-2.156zm-1.638 4.144v.966h2.058v5.46c0 .224-.112.434-.322.602l.392.896a19.803 19.803 0 0 0 2.772-2.212l-.252-1.036a32.87 32.87 0 0 1-1.624 1.442v-6.118h-3.024zm14.63 5.782a37.8 37.8 0 0 0 3.08-.938v3.626h.994v-12.684h-.994v8.078c-.7.266-1.4.504-2.1.7v-7.644h-.98v7.672c0 .14-.112.252-.308.336l.308.854zm6.93-6.944h2.814c-.084 1.932-.532 3.612-1.372 5.04a16.119 16.119 0 0 1-1.96-3.78c.182-.392.35-.812.518-1.26zm-1.106 2.352a17.159 17.159 0 0 0 1.946 3.598c-.868 1.148-2.044 2.086-3.514 2.814l.574.91c1.456-.784 2.646-1.75 3.57-2.912a17.458 17.458 0 0 0 3.15 3.01l.686-.812a16.76 16.76 0 0 1-3.22-3.066c1.036-1.624 1.596-3.598 1.694-5.894h1.204v-.994h-4.676a28.51 28.51 0 0 0 .462-2.002l-1.008-.168c-.406 2.464-1.19 4.438-2.338 5.894l.63.77c.294-.35.574-.728.84-1.148zm7.7-4.928v.882h4.228v1.12h-3.206v3.108h10.402v-3.108h-3.206v-1.12h4.214v-.882h-12.432zm7.266 2.002h-2.086v-1.12h2.086v1.12zm3.192 2.282h-2.24v-1.442h2.24v1.442zm-3.192 0h-2.086v-1.442h2.086v1.442zm-3.038 0h-2.24v-1.442h2.24v1.442zm-2.618 1.862v.84h9.282v-.84h-9.282zm-1.386 1.862v.882h5.656v1.96c0 .364-.21.546-.602.546-.364 0-.742-.028-1.134-.056l.196.896h1.26c.84 0 1.26-.392 1.26-1.162v-2.184h5.348v-.882h-11.984zm8.862 1.358-.672.63c1.372.756 2.436 1.456 3.206 2.128l.7-.7c-.868-.686-1.946-1.372-3.234-2.058zm-5.46.028c-.924.728-2.058 1.372-3.402 1.932l.602.784c1.372-.602 2.52-1.302 3.458-2.114l-.658-.602zm12.782-4.998h10.08v-.98h-10.08v-1.96c3.416-.084 6.496-.392 9.24-.952l-.504-.91c-2.884.602-6.118.924-9.73.966v4.2c-.084 2.856-.63 5.096-1.652 6.72l.742.77c1.176-1.862 1.82-4.354 1.904-7.49v-.364zm8.974 1.96h-7.686v5.936h1.008v-.658h5.67v.658h1.008v-5.936zm-6.678 4.298v-3.332h5.67v3.332h-5.67zm10.164-10.906-.49.756c.77.252 1.526.588 2.282 1.036l.532-.812c-.7-.392-1.484-.714-2.324-.98zm4.508-.336c-.336.994-.952 1.834-1.876 2.506l.588.784c.532-.42.994-.882 1.386-1.386h1.792c-.168.784-.518 1.4-1.022 1.862-.616.532-1.61.938-2.982 1.232l.378.896c1.568-.364 2.688-.882 3.374-1.526.21-.224.392-.462.56-.714.868 1.12 2.324 1.876 4.368 2.296l.364-.896c-2.156-.406-3.598-1.148-4.326-2.226.112-.28.196-.588.252-.924h2.38a7.854 7.854 0 0 1-.602 1.47l.966.294c.28-.672.504-1.358.672-2.044v-.602h-5.642c.14-.28.252-.588.364-.896l-.994-.126zm5.32 6.272h-9.002v4.27h1.008v-3.332h6.986v3.22h1.008v-4.158zm-4.9 1.47c-.112 1.442-.49 2.464-1.12 3.066-.714.644-2.184 1.022-4.41 1.148l.392.896c2.52-.196 4.144-.686 4.872-1.442.658-.616 1.078-1.806 1.274-3.584l-1.008-.084zm-2.982-4.774c-.728.7-1.624 1.358-2.688 1.96l.672.784c1.036-.644 1.904-1.33 2.604-2.058l-.588-.686zm4.312 7.42-.518.77a27.468 27.468 0 0 1 4.942 1.792l.546-.84c-1.498-.672-3.15-1.246-4.97-1.722zm-102.578 13.658v.812h3.178v2.016h-4.998v.938h4.998v3.738h-1.61c-.364-1.106-.756-2.058-1.19-2.842l-.91.336c.448.784.826 1.61 1.12 2.506h-2.898v.966h11.97v-.966h-2.898c.42-.756.812-1.638 1.162-2.618l-.924-.322a21.593 21.593 0 0 1-1.26 2.94h-1.554v-3.738h4.984v-.938h-4.984v-2.016h3.178v-.77c.644.378 1.33.728 2.072 1.036l.574-.84c-2.604-1.092-4.578-2.464-5.922-4.13h-.812c-1.54 1.694-3.528 3.08-5.964 4.172l.588.84a21.443 21.443 0 0 0 2.1-1.12zm7.126-.098h-6.972a17.748 17.748 0 0 0 3.528-2.842c.924 1.078 2.072 2.03 3.444 2.842zm6.93-.056v2.128h-1.54c.392-.91.756-1.96 1.092-3.164h2.912v-.98h-2.66c.126-.546.252-1.12.378-1.722l-.952-.14c-.14.644-.266 1.274-.406 1.862h-1.652v.98h1.4c-.35 1.288-.728 2.338-1.134 3.178l.21.896h2.352v2.1c-.896.154-1.834.294-2.842.42l.126.994a62.131 62.131 0 0 0 2.716-.42v2.842h.966v-3.038c.672-.14 1.316-.308 1.946-.476v-.952a45.27 45.27 0 0 1-1.946.448v-1.918h1.554v-.91h-1.554v-2.128h-.966zm3.108-2.016v.98h2.002c-.112.532-.238 1.064-.364 1.61h-2.044v.966h1.806a46.176 46.176 0 0 1-.784 2.674h4.69c-.49.812-1.148 1.582-1.988 2.324a20.12 20.12 0 0 0-2.058-1.022l-.532.798c1.54.644 3.038 1.54 4.494 2.66l.56-.854a19.696 19.696 0 0 0-1.638-1.106c.994-.952 1.722-1.904 2.198-2.856v-.84h-4.466c.182-.546.364-1.134.532-1.778h4.55v-.966h-4.312l.364-1.61h3.598v-.98h-3.402c.112-.574.21-1.176.322-1.792l-.994-.098c-.112.644-.224 1.274-.336 1.89h-2.198zm13.888 1.414c-.896 3.724-2.842 6.58-5.838 8.54l.602.854c2.94-1.904 4.872-4.648 5.796-8.218.07.168.14.364.224.588 1.442 3.696 3.29 6.244 5.558 7.616l.63-.812c-2.212-1.386-3.962-3.752-5.278-7.098-.868-2.268-1.918-3.85-3.164-4.718l-.84.532c.896.644 1.666 1.54 2.31 2.716zm15.526 7.252c-.952.21-1.918.406-2.912.574v-2.478h2.52v-.98h-2.52v-1.624h-1.008v1.624h-2.73v.98h2.73v2.646a74.303 74.303 0 0 1-3.276.434l.224.966c2.492-.308 4.816-.7 6.972-1.148v-.994zm-7.014-9.884v.952h2.296c-.798 1.61-1.484 2.66-2.058 3.164-.098.042-.238.07-.406.098l.238.91c2.1-.21 4.046-.476 5.81-.784.224.378.42.742.602 1.106l.84-.588c-.504-.938-1.218-2.044-2.156-3.304l-.77.504c.378.518.728 1.022 1.036 1.526-1.26.224-2.576.392-3.962.532.588-.714 1.218-1.764 1.89-3.164h3.598v-.952h-6.958zm10.654 12.096c.84 0 1.274-.434 1.274-1.288v-11.382h-1.022v11.13c0 .406-.21.616-.602.616-.616 0-1.26-.028-1.932-.056l.224.98h2.058zm-2.548-11.41v8.666h.98v-8.666h-.98zm7.35 4.914-.476.7c1.008.35 1.988.826 2.94 1.442l.504-.77a14.792 14.792 0 0 0-2.968-1.372zm1.246-1.428-.49.714c.98.308 1.946.742 2.87 1.274l.518-.77a16.992 16.992 0 0 0-2.898-1.218zm3.92.042v2.226c-.028.532-.112 1.022-.28 1.47h-6.02v.966h5.502a5.088 5.088 0 0 1-.588.658c-.91.756-2.52 1.372-4.844 1.834l.532.854c2.324-.49 3.99-1.162 5.012-2.03.056-.056.112-.112.182-.168a27.022 27.022 0 0 1 5.068 2.24l.56-.882a31.44 31.44 0 0 0-5.054-2.044c.098-.154.196-.308.28-.462h5.026v-.966h-4.634c.126-.448.196-.938.224-1.47v-2.226h-.966zm-6.146-1.456v.91h10.094c-.224.84-.49 1.596-.826 2.268l.952.266a20.1 20.1 0 0 0 .896-2.828v-.616h-4.942v-1.344h4.088v-.91h-4.088v-1.106h-.98v1.106h-4.172v.91h4.172v1.344h-5.194zm21.826 4.004c.672 1.918 1.778 3.5 3.318 4.746l.714-.826c-1.484-1.05-2.562-2.45-3.22-4.214a12.621 12.621 0 0 0 2.408-1.246l-.686-.686a13.227 13.227 0 0 1-3.71 1.694 6.547 6.547 0 0 0-1.176-1.638c.378-.224.756-.476 1.148-.742h3.206v-.938h-8.386v.938h3.71c-.448.252-.938.476-1.442.7-1.078.462-2.296.84-3.64 1.134l.518.826c1.568-.448 2.842-.896 3.808-1.344.098-.056.196-.098.308-.154.196.224.392.462.56.728-1.274.98-3.094 1.764-5.446 2.38l.504.868c2.268-.644 4.06-1.484 5.376-2.52.168.336.294.686.406 1.05-1.526 1.26-3.682 2.282-6.454 3.094l.504.868c2.534-.77 4.578-1.764 6.146-2.996.028.224.042.448.056.7 0 .868-.126 1.456-.378 1.764-.21.238-.728.364-1.554.378h-.672l.336.882h.476c1.204 0 1.988-.252 2.324-.728.294-.42.448-1.19.448-2.296a7.435 7.435 0 0 0-.364-2.184c.28-.07.574-.154.854-.238zm-2.03-7.476-1.022.182c.168.336.336.728.49 1.148h-5.544v2.436h.994v-1.498h9.828v1.498h.994v-2.436h-5.264c-.154-.49-.308-.938-.476-1.33zm12.81.658h-4.844v8.792h.924v-7.854h3.024v7.854h.896v-8.792zm-2.87 1.96v4.55c-.028 1.274-.21 2.31-.546 3.122-.364.77-1.022 1.386-1.946 1.848l.546.84c.98-.49 1.68-1.176 2.114-2.044.448-.938.672-2.198.7-3.766v-4.55h-.868zm1.344 7.224-.644.63c.798.84 1.428 1.638 1.876 2.394l.714-.714a16.4 16.4 0 0 0-1.946-2.31zm5.334-2.968c.672 2.604 1.68 4.592 2.996 5.936l.686-.784c-1.218-1.204-2.156-2.912-2.8-5.152h2.534v-.98h-4.648v-5.782h-.98v5.782h-1.008v.98h1.008v4.704c0 .196-.112.336-.322.434l.42.896c1.12-.35 2.1-.798 2.968-1.344l-.182-.896a11.09 11.09 0 0 1-1.904.966v-4.76h1.232zm2.436-6.132c-.896 1.498-1.974 2.618-3.234 3.346l.546.784c1.316-.756 2.478-1.932 3.458-3.5l-.77-.63zm12.964 2.072v2.73h-7.994v-2.73h7.994zm-7.994 3.71h9.016v-4.704h-4.424a23.588 23.588 0 0 0-.756-1.806l-1.078.168c.294.504.56 1.05.812 1.638h-4.564v4.382c-.028 2.506-.602 4.55-1.736 6.118l.742.672c1.26-1.806 1.918-3.962 1.988-6.468z"/><path fill="#4E4A49" d="M374.869 146.549v-1.745h-16.59v1.745h7.365l-.68 1.59h-3.913a2.31 2.31 0 0 0-2.258 2.22v7.365a2.347 2.347 0 0 0 2.206 2.117h11.009a2.565 2.565 0 0 0 2.181-2.207v-7.365a2.284 2.284 0 0 0-2.092-2.155h-5.132l.809-1.565h7.095zm-2.4 10.867c0 .372-.307.68-.859.68h-10.162c-.436 0-.705-.218-.705-.642v-2.861h11.726v2.823zm-.846-7.583a.857.857 0 0 1 .885.731v2.566h-11.765v-2.566c0-.397.462-.731.988-.731h9.892zm5.119 1.848 1.591-1.412.038 9.726h1.681v-11.291l.962-.834v-3.13l-4.272 4.362v2.579zm16.243-5.902h-4.478v-.911h-2.219l-.026.859h-4.67v1.771h11.393v-1.719zm-11.393 2.733h11.393v1.693h-11.393v-1.693zm0 2.771h11.393v1.693h-11.393v-1.693zm10.084 2.694h-8.365a1.592 1.592 0 0 0-1.591 1.591v2.72a1.592 1.592 0 0 0 1.591 1.591h8.365a1.592 1.592 0 0 0 1.591-1.591v-2.72a1.59 1.59 0 0 0-1.591-1.591zm-.102 3.554a.607.607 0 0 1-.603.603h-6.877a.604.604 0 0 1-.603-.603v-1.18a.604.604 0 0 1 .603-.603h6.877a.603.603 0 0 1 .603.603v1.18zm9.237-9.905v-1.693h-2.566l.757-1.129h-2.207c-.28.382-.58.751-.898 1.103a8.553 8.553 0 0 1-.911.706v2.489l1.809-1.476h4.016zm-5.825 3.708h1.283v1.976h-1.283v1.758h1.283v3.631a1.28 1.28 0 0 0 1.283 1.167h3.323v-1.745h-2.566c-.192 0-.32-.141-.32-.372v-2.681h2.951v-1.732h-3.015v-2.002h2.95v-1.693h-5.889v1.693zm16.564.167v-5.248a1.47 1.47 0 0 0-1.437-1.449h-6.415a1.479 1.479 0 0 0-1.363.91 1.479 1.479 0 0 0-.112.565v12.343a1.45 1.45 0 0 0 1.36 1.385h3.348l-1-1.668h-1.566c-.436 0-.577-.487-.577-.731v-4.683h.911l3.733 7.018h2.348l-2.348-4.054h3.118v-1.63h-4.003l-.757-1.283h3.323a1.475 1.475 0 0 0 1.437-1.475zm-1.629-.642a.426.426 0 0 1-.424.424h-5.709v-1.655h6.12l.013 1.231zm0-2.707h-6.133v-1.206a.448.448 0 0 1 .449-.449h5.235a.449.449 0 0 1 .449.449v1.206zm3.425-.5v2.155l2.489-1.283a14.772 14.772 0 0 0 1.976-1.154v-2.566c-.717.626-1.5 1.172-2.335 1.629-1.244.667-2.13 1.219-2.13 1.219zm0 4.054v1.963l1.668-.68v6.8h1.707v-7.788l1.065-.615v-2.284a20.4 20.4 0 0 1-2.335 1.437c-1.219.68-2.105 1.167-2.105 1.167zm6.12-6.838h10.521v1.655h-10.521v-1.655zm0 6.261h6.634v6.171c0 .501-.296.783-.873.783h-5.761v1.719h6.415a1.922 1.922 0 0 0 1.938-1.886v-6.787H430v-1.655h-10.521l-.013 1.655z"/><path fill="#057FC1" d="M334.815 146.639c-3.605 0-6.543 3.49-6.543 7.762 0 4.273 2.938 7.762 6.543 7.762s6.543-3.489 6.543-7.762c0-4.272-2.938-7.762-6.543-7.762zm12.959 17.013a1.645 1.645 0 0 1-.693.154c-.796 0-2.759-1.36-3.76-3.849a9.669 9.669 0 0 1-8.506 5.529c-5.427-.051-9.815-4.991-9.815-11.085 0-6.094 4.388-11.034 9.815-11.034a9.705 9.705 0 0 1 8.583 5.697c.219-2.066.411-3.734.411-4.067 0-.349.11-.688.316-.969.205-.282.494-.491.826-.597.205-.094.428-.142.654-.141a1.52 1.52 0 0 1 1.643 1.642c-.257 2.772-.86 6.326-1.207 10.598a7.375 7.375 0 0 0 .488 3.387c.334.462.719.924 1.078 1.36.641.68 1.283 1.283 1.283 1.848a1.648 1.648 0 0 1-1.116 1.527z"/><path fill="#CF1327" d="M346.593 138.389a2.04 2.04 0 1 0 .001 4.08 2.04 2.04 0 0 0-.001-4.08"/><path fill="#D81E06" d="M210.845 121.354c-2.802.2-5.597-.471-7.994-1.92a13.376 13.376 0 0 1-5.373-6.162h6.484a.795.795 0 0 1 .5.201 7.676 7.676 0 0 0 5.401 2.194 7.795 7.795 0 0 0 5.425-1.906 7.605 7.605 0 0 0 .93-10.537 7.764 7.764 0 0 0-5.009-2.808 7.57 7.57 0 0 0-6.552 1.859l-.263.235a16.839 16.839 0 0 0-2.87-5.076 13.614 13.614 0 0 1 5.693-2.587 13.683 13.683 0 0 1 6.259.224 13.582 13.582 0 0 1 5.489 2.987 13.4 13.4 0 0 1 3.544 5.11 13.268 13.268 0 0 1 .84 6.141 13.3 13.3 0 0 1-2.042 5.859 13.476 13.476 0 0 1-4.488 4.323 13.63 13.63 0 0 1-5.974 1.863zm-35.538-10.729a13.25 13.25 0 0 1-.078-5.289 13.304 13.304 0 0 1 1.997-4.906 13.467 13.467 0 0 1 3.76-3.76 13.626 13.626 0 0 1 4.938-2.028 13.69 13.69 0 0 1 5.347.021 13.616 13.616 0 0 1 4.921 2.066 13.45 13.45 0 0 1 3.73 3.79 13.322 13.322 0 0 1 1.958 4.922c.125 1.639.153 3.283.085 4.925h-14.688a1.417 1.417 0 0 1-1.136-.394 1.377 1.377 0 0 1-.405-1.122v-1.776a1.358 1.358 0 0 1 .398-1.064 1.377 1.377 0 0 1 1.075-.393h8.694c-.22-2.194-3.242-4.799-6.078-5.251a7.83 7.83 0 0 0-3.918.371 7.768 7.768 0 0 0-3.231 2.224 7.658 7.658 0 0 0-1.712 3.507 7.6 7.6 0 0 0 .246 3.886 7.669 7.669 0 0 0 2.141 3.268 7.787 7.787 0 0 0 3.486 1.808 7.84 7.84 0 0 0 3.934-.115 7.771 7.771 0 0 0 3.371-2.009 16.926 16.926 0 0 0 2.896 5.083c-.263.21-.517.411-.779.578a13.634 13.634 0 0 1-6.193 2.284 13.677 13.677 0 0 1-6.548-.888 13.52 13.52 0 0 1-5.343-3.847 13.332 13.332 0 0 1-2.868-5.891zm53.899-5.846-.575-1.675a15.81 15.81 0 0 0 3.792-5.988l1.693.695a17.046 17.046 0 0 1-1.625 3.199v10.135h-1.829v-7.84c-.474.511-.965.989-1.456 1.474zm14.112-6.281v1.365c-2.353 2.044-4.012 3.576-4.977 4.598a10.508 10.508 0 0 0-1.93 2.362 2.968 2.968 0 0 0-.432 1.348c-.004.247.073.488.22.687.135.21.491.327 1.05.327h4.402a1.06 1.06 0 0 0 .948-.528 6.669 6.669 0 0 0 .237-2.253l1.693.469a5.752 5.752 0 0 1-.542 3.066 2.064 2.064 0 0 1-1.778.72h-5.282a2.891 2.891 0 0 1-2.083-.62 2.747 2.747 0 0 1-.643-1.876 3.953 3.953 0 0 1 .491-1.725 12.857 12.857 0 0 1 2.201-2.731c.931-1.005 2.201-2.236 3.793-3.676h-6.146v-1.533h8.778zm9.304-.813v1.441h-.897v7.705l.931-.268v1.516c-.305.092-.627.168-.931.243v2.806h-1.694v-2.387a94.875 94.875 0 0 1-3.928.762l-.423-1.491.931-.117v-8.769h-.846v-1.44h6.857zm-2.607 3.217v-1.776h-1.744v1.776h1.744zm0 3.124v-1.675h-1.744v1.675h1.744zm0 3.241v-1.826h-1.744v2.194l1.744-.368zm4.842-6.935a19.406 19.406 0 0 0-1.473-2.278l1.354-.77a18.733 18.733 0 0 1 1.456 2.294l-1.202.754h1.964a18.314 18.314 0 0 0 1.524-3.107l1.642.553c-.414.87-.889 1.709-1.422 2.512h2.15v1.516h-3.267v.193c.001.64-.033 1.281-.102 1.918h3.674v1.524h-3.217a10.061 10.061 0 0 0 3.488 4.548l-1.219 1.172a11.95 11.95 0 0 1-3.302-4.547 8.135 8.135 0 0 1-3.674 4.623l-1.066-1.273a6.82 6.82 0 0 0 2.191-1.896 6.725 6.725 0 0 0 1.195-2.627h-3.065v-1.524h3.285c.068-.517.102-1.037.102-1.558v-.553h-3.116v-1.474h2.1zm11.521-2.764c-.118.419-.237.838-.355 1.19h2.971v1.482h-3.555c-.237.511-.474.988-.728 1.441h3.894v1.415h-1.575v1.508h2.133v1.44h-2.133v2.898c.557-.17 1.1-.38 1.625-.628l.288 1.34a20.1 20.1 0 0 1-3.623 1.122l-.677-1.29c.474-.117.728-.318.728-.586v-2.848h-2.303v-1.448h2.303v-1.508h-.897v-1.005l-.559.837-1.456-.837a14.94 14.94 0 0 0 2.184-4.85l1.735.327zm11.793 8.309a7.783 7.783 0 0 1-2.303 1.775 8.879 8.879 0 0 0 2.438 1.977l-.931 1.348a9.625 9.625 0 0 1-3.003-2.775 9.497 9.497 0 0 1-1.568-3.758h-1.389v4.548a20.42 20.42 0 0 0 2.421-.837l.407 1.474a38.626 38.626 0 0 1-4.572 1.264l-.372-1.306c.305-.092.457-.226.457-.436V97.685h7.373v6.785h-2.776c.141.694.38 1.365.711 1.993a8.364 8.364 0 0 0 1.981-1.575l1.126.989zm-2.642-6.776h-4.114v1.315h4.114v-1.315zm-4.114 3.978h4.114v-1.29h-4.114v1.29zm13.198-5.109a12.525 12.525 0 0 1-4.614 4.464l-.542-1.574a10.301 10.301 0 0 0 3.556-3.56l1.6.67zm.779 3.442a11.654 11.654 0 0 1-1.693 2.253v7.446h-1.744v-5.863a36.34 36.34 0 0 1-1.846 1.248l-.542-1.549a11.968 11.968 0 0 0 4.233-4.188l1.592.653zm9.608.319v1.549h-2.607v6.29c0 .994-.627 1.491-1.88 1.491h-2.455l-.389-1.533c.779.059 1.524.109 2.235.109.457 0 .694-.151.694-.452v-5.863h-5.079v-1.591H295zm-.728-3.727v1.574h-8.347v-1.574h8.347zm-63.847 16.022 1.854 2.739 1.846-2.739h.567l-2.184 3.141v2.219h-.466v-2.219l-2.184-3.166.567.025zm7.069 0v5.385h-.466v-5.385h.466zm3.327 0v4.975h3.268v.41h-3.734v-5.385h.466zm6.205 0v5.385h-.465v-5.385h.465zm7.12.712a2.92 2.92 0 0 1 .66 1.985 2.932 2.932 0 0 1-.66 1.993 2.425 2.425 0 0 1-1.914.838 2.413 2.413 0 0 1-1.054-.2 2.375 2.375 0 0 1-.859-.638 2.933 2.933 0 0 1-.66-1.985 2.933 2.933 0 0 1 .66-1.985 2.639 2.639 0 0 1 1.913-.815 2.66 2.66 0 0 1 1.914.815v-.008zm-3.48.285a2.55 2.55 0 0 0-.55 1.675 2.496 2.496 0 0 0 .542 1.675 2.15 2.15 0 0 0 2.42.498 2.15 2.15 0 0 0 .712-.498c.382-.475.577-1.07.55-1.675a2.491 2.491 0 0 0-.55-1.675c-.19-.223-.429-.4-.699-.516a1.946 1.946 0 0 0-.859-.155 1.97 1.97 0 0 0-.861.156 1.927 1.927 0 0 0-.705.515zm7.23-.997 3.293 4.665v-4.665h.474v5.385h-.516l-3.31-4.707v4.707h-.466v-5.385h.525zm13.181 0c.422-.026.839.099 1.176.352a1.342 1.342 0 0 1 .17 1.784c-.177.208-.413.36-.678.435.323.045.621.195.847.427.212.247.324.564.313.888a1.31 1.31 0 0 1-.559 1.156 2.268 2.268 0 0 1-1.295.335h-2.37v-5.377h2.396zm-1.931 2.404h1.829c.323.016.642-.075.906-.26a1.032 1.032 0 0 0 .331-.754 1.023 1.023 0 0 0-.331-.754 1.494 1.494 0 0 0-.906-.243h-1.837l.008 2.011zm0 2.579h1.888c.342.014.68-.07.974-.243a.97.97 0 0 0 .423-.837.952.952 0 0 0-.398-.838 1.716 1.716 0 0 0-1.016-.268h-1.879l.008 2.186zm8.491-4.983 2.184 5.385h-.508l-.634-1.608h-2.625l-.635 1.608h-.499l2.184-5.385h.533zm.847 3.35-1.143-2.89-1.151 2.89h2.294zm4.055-3.35 3.293 4.665v-4.665h.474v5.385h-.516l-3.251-4.707v4.707h-.466v-5.385h.466zm10.869 0-2.539 2.303 2.844 3.082h-.643l-2.54-2.789-.973.896v1.893h-.466v-5.385h.466v2.956l3.174-2.956h.677z"/><path fill="#EC1C24" d="M350.302 116.431c-4.16-.115-8.285.11-12.22 1.644-1.037.406-2.033.922-3.058 1.363-.234.13-.503.18-.768.144-3.529-1.108-6.807-2.691-9.43-5.383-1.987-2.031-3.152-4.431-2.746-7.35.377-2.691 1.958-4.698 3.976-6.362 2.692-2.224 5.812-3.633 9.151-4.531 8.603-2.31 17.128-2.134 25.528.979 2.956 1.098 5.659 2.66 7.785 5.052 1.899 2.136 2.937 4.576 2.303 7.485a2.428 2.428 0 0 1-.734 1.248c-5.305 4.465-11.473 6.227-18.334 5.762-.227-.015-.455-.034-.685-.039-.23-.005-.514-.012-.768-.012zm-20.955-13.641a6.988 6.988 0 0 1-.709-.042c-.734-.122-1.045.157-1.123.903-.093.881-.306 1.747-.468 2.621l-.863 4.6c1.394.384 1.617.244 1.862-1.006.181-.94.364-1.879.54-2.787h3.343c-.245 1.326-.465 2.581-.693 3.834 1.586.262 1.596.245 1.86-1.103.015-.076.039-.15.054-.223.418-2.236.841-4.475 1.284-6.834-.298.02-.597.02-.895 0-.59-.083-.876.127-.942.734-.08.655-.2 1.304-.362 1.943-.044.179-.245.453-.372.457-1.003.04-2.009.02-3.054.02.189-1.079.355-2.05.538-3.117zm19.029 2.858c-.154-.622-.673-.365-1.032-.336-.172.015-.407.316-.463.527-.169.633-.269 1.287-.389 1.935-.326 1.783-.657 3.567-.993 5.354 1.353.293 1.38.276 1.607-.96.034-.122.058-.247.071-.374 0-.7.343-.883 1.028-.927 2.27-.152 3.748-1.813 3.628-3.957-.073-1.299-1.02-2.033-2.287-1.735a8.396 8.396 0 0 0-1.17.473zm7.666 1.267a6.965 6.965 0 0 0-1.111.186c-.756.259-1.554.489-2.224.888-.734.45-.952 1.527-.631 2.239.301.67.978.979 1.933.842a5.963 5.963 0 0 0 1-.335c.113-.04.245-.125.336-.101.469.118.934.267 1.455.421.289-1.544.568-2.858.771-4.184.159-1.047-.318-1.664-1.392-1.759a9.283 9.283 0 0 0-2.19.095c-.915.135-1.106.517-.883 1.468 2.522-.773 2.75-.761 2.936.24zm-16.673 2.381c-.406.188-.79.369-1.179.543-.563.245-1.14.345-1.654-.073a1.566 1.566 0 0 1-.521-1.676c.081-.042.122-.086.166-.089.964-.019 1.931-.014 2.892-.068a.827.827 0 0 0 .612-.35c.345-.866-.303-2.138-1.179-2.43-1.126-.376-2.567.162-3.426 1.278-.817 1.064-.964 2.608-.335 3.567.683 1.045 2.006 1.375 3.643.91.923-.259 1.067-.487.981-1.612zm18.146 2.664c-.387 1.163-.223 1.373.959 1.265 1.064-.097 1.749-.734 2.246-1.619a818.595 818.595 0 0 0 3.269-5.843.795.795 0 0 0 .042-.265c-.715-.244-1.116 0-1.422.637-.438.915-.959 1.791-1.551 2.879-.233-1.164-.394-2.084-.612-2.99a.846.846 0 0 0-.453-.565 5.698 5.698 0 0 0-1.252-.027c.053.314.08.507.122.695.321 1.437.621 2.875.979 4.302.149.599-.074 1.018-.443 1.436-.595.683-1.25.267-1.884.103v-.008zm-14.326-9.114c-1.422-.245-1.419-.245-1.652 1.038-.127.694-.271 1.389-.401 2.084a2675.09 2675.09 0 0 0-.91 4.894c1.25.369 1.443.244 1.649-.879l.734-3.878c.192-1.086.386-2.173.58-3.259zm-.078 8.011c1.24.362 1.402.276 1.622-.805.105-.521.198-1.045.296-1.566l.626-3.401c-.653.215-1.436.279-1.497.521-.443 1.732-.729 3.501-1.047 5.251zm22.062-6.083c.59.066 1.148.245 1.224-.604a.342.342 0 0 1 .244-.228c.893.083.788-.526.818-1.096l-.783-.156v-.788c-.551-.027-1.133-.245-1.212.606 0 .093-.21.245-.315.245-.891-.051-.688.573-.734 1.106l.748.125.01.79zm-20.445-.259c.854 0 1.439-.553 1.404-1.101-.034-.548-.364-.805-.902-.795-.578.012-1.168.518-1.06 1.039.073.358.423.659.558.857z"/><path fill="#EC1C24" d="M365.865 116.279c-8.38 5.138-17.426 5.872-27.069 4.509.411-.328.649-.538.906-.722 3.041-2.141 6.423-3.009 10.134-2.86 3.245.13 6.501.227 9.741.085 2.085-.093 4.142-.655 6.288-1.012zm-18.326-6.389c.188-.991.32-1.943.56-2.865.164-.627 1.035-1.057 1.598-.862.714.245.719.827.614 1.444-.286 1.688-1.16 2.449-2.772 2.283zm8.483-1.833c-.306.57-.531 1.224-.945 1.696-.413.472-1.152.409-1.416.034-.265-.374-.057-1.116.523-1.394a13.49 13.49 0 0 1 1.559-.553l.279.217zm-17.852-1.022h-1.835c.159-.705.634-1.089 1.243-1.006.546.086.714.401.592 1.006zm48.231-5.83c-1.856 2.112-4.176 3.888-6.976 5.312l.896 1.632c.864-.48 1.68-.992 2.448-1.52v1.12h8.48v-1.104a20.638 20.638 0 0 0 2.384 1.472l.912-1.616c-2.624-1.28-4.928-3.056-6.928-5.296h-1.216zm-2.944 4.928a19.998 19.998 0 0 0 3.552-3.408 21.618 21.618 0 0 0 3.536 3.408h-7.088zm8.832 3.184h-10.56v6.72h1.616v-.816h7.328v.816h1.616v-6.72zm-8.944 4.32v-2.752h7.328v2.752h-7.328zm15.028-8.256v1.616h2.928v.032c-.72 1.6-1.84 3.04-3.344 4.32l.768 1.968a17.233 17.233 0 0 0 2.576-3.536v6.272h1.696v-6.896a46.158 46.158 0 0 1 2 2.416l.976-1.504c-1.008-.992-2-1.872-2.976-2.672v-.4h2.832v-1.616h-2.832v-1.936a24.664 24.664 0 0 0 2.672-.832l-.816-1.376c-1.584.624-3.712 1.056-6.384 1.28l.512 1.536a28.625 28.625 0 0 0 2.32-.272v1.6h-2.928zm8.448-2.64v9.776h1.664v-9.776h-1.664zm3.712 13.168c1.12 0 1.68-.592 1.68-1.76v-12.848h-1.696v12.416c0 .448-.192.672-.56.672-.688 0-1.408-.032-2.16-.096l.352 1.616h2.384zm12.612-8.384v2.24h-4.032v1.568h4.032v2.864h-5.872v1.552h13.456v-1.552h-2.288l.816-.56c-.4-.608-.96-1.328-1.664-2.144l-1.264.784c.56.688 1.024 1.328 1.408 1.92h-2.896v-2.864h3.936v-1.568h-3.936v-2.24h4.464v-1.376h1.392v-3.44h-5.728c-.16-.528-.32-1.008-.496-1.44l-1.792.288c.176.352.336.736.48 1.152h-5.872v3.472h1.456v1.344h4.4zm-4.16-1.568v-1.632h10.032v1.632h-10.032z"/><path fill="#007CBD" d="M225.3 161.586h1.547v-1.547H225.3v1.547z"/><path fill="#007CBD" d="M229.779 160.042h-.896l-.341.761h-1.279v.726h.982l-.896 1.959c-.042.11-.042.256.041.328a.564.564 0 0 0 .341.146h2.727v1.052h-3.236v.726h3.195v1.307h-3.838c-.253 0-.426-.147-.426-.365v-4.283h-.853v4.281c0 .618.556 1.092 1.279 1.092h7.325v-.727h-2.596v-1.307h2.769v-.727h-2.769v-1.052h2.596v-.726h-2.596v-1.2h-.852v1.2h-2.087l.764-1.741h4.944v-.726h-4.644l.344-.727.002.003zm5.494 1.633h.852v-1.198h-.852v1.198z"/><path fill="#007CBD" d="M243.199 160.962v-.788h-4.263l.316-.829h-.828l-.316.829h-1.184v.788h.907l-.828 2.126c-.038.119-.038.277.036.353.082.081.199.16.316.16h2.526v1.139h-2.957v.789h2.959v1.418h-3.588c-.237 0-.397-.157-.397-.394v-4.609h-.789v4.645c0 .669.514 1.182 1.186 1.182h6.784v-.788h-2.406v-1.416h2.564v-.788h-2.567v-1.142h2.407v-.788h-2.407v-1.302h-.789v1.299h-1.933l.711-1.887h4.537l.003.003zM182 138.389h1.282v13.867h9.028v1.132H182v-14.999zm12.688.547c.21.167.315.413.315.735a1.041 1.041 0 0 1-.335.755 1.095 1.095 0 0 1-1.495 0 1.034 1.034 0 0 1-.315-.755c0-.322.105-.568.315-.735a1.001 1.001 0 0 1 .756-.315c.297 0 .55.105.759.315zm-1.388 14.452h1.261v-10.86H193.3v10.86zm11.09-9.917c.646.717.966 1.689.966 2.922v6.998h-1.196v-2.083a5.614 5.614 0 0 1-4.609 2.374c-1.067 0-1.928-.272-2.589-.819-.657-.559-.988-1.309-.988-2.245 0-1.388.567-2.396 1.704-3.027.911-.518 2.126-.778 3.64-.778l2.775-.022v-.398c0-2.059-1.052-3.089-3.153-3.089-.968 0-1.727.203-2.272.609-.62.406-.99 1.037-1.117 1.892h-1.242c.17-1.218.682-2.128 1.536-2.73.787-.561 1.837-.841 3.158-.841 1.528 0 2.657.413 3.387 1.237zm-.294 4.35-2.715.024c-2.751.012-4.124.931-4.124 2.751 0 .602.232 1.092.693 1.471.45.378 1.067.566 1.854.566 1.136 0 2.146-.377 3.029-1.134.842-.74 1.263-1.548 1.263-2.415v-1.263zm11.3-1.113v6.68h-1.263v-6.597c0-2.309-1.029-3.465-3.093-3.465-.869 0-1.598.315-2.187.946-.619.616-.961 1.471-1.033 2.562v6.554h-1.263v-10.86h1.263v1.787a4.427 4.427 0 0 1 1.474-1.534c.588-.365 1.277-.547 2.062-.547 2.693 0 4.042 1.491 4.042 4.474h-.002zm1.411-8.319h1.282v13.867h9.028v1.132h-10.31v-14.999zm12.688.547c.21.167.315.413.315.735a1.045 1.045 0 0 1-.335.755c-.2.187-.463.291-.736.294a1.04 1.04 0 0 1-.764-.294 1.028 1.028 0 0 1-.31-.757c0-.32.105-.566.315-.733a.985.985 0 0 1 .759-.315c.294 0 .545.105.756.315zm-1.388 14.452h1.263v-10.86h-1.263v10.86zm11.09-9.917c.646.717.969 1.689.969 2.922v6.998h-1.201v-2.083a5.62 5.62 0 0 1-4.607 2.374c-1.067 0-1.928-.272-2.589-.819-.657-.559-.987-1.309-.987-2.245 0-1.388.566-2.396 1.703-3.027.911-.518 2.126-.778 3.64-.778l2.775-.022v-.398c0-2.059-1.05-3.089-3.153-3.089-.968 0-1.727.203-2.272.609-.62.406-.99 1.037-1.115 1.892h-1.244c.17-1.218.682-2.128 1.539-2.73.784-.561 1.837-.841 3.155-.841 1.528 0 2.655.413 3.387 1.237zm-.294 4.35-2.715.024c-2.751.012-4.124.931-4.124 2.751 0 .602.232 1.092.693 1.471.45.378 1.067.566 1.854.566a4.525 4.525 0 0 0 3.029-1.134c.842-.74 1.263-1.548 1.263-2.415v-1.263zm11.3-1.113v6.68h-1.263v-6.597c0-2.309-1.031-3.465-3.093-3.465-.871 0-1.6.315-2.189.946-.617.616-.959 1.471-1.031 2.562v6.554h-1.263v-10.86h1.263v1.787a4.418 4.418 0 0 1 1.474-1.534c.588-.365 1.275-.547 2.062-.547 2.693 0 4.04 1.491 4.04 4.474zm5.76-8.319h6.102c3.339 0 5.009 1.435 5.009 4.306 0 2.885-1.677 4.328-5.028 4.328h-4.799v6.365h-1.284v-14.999zm1.284 1.134v6.366h4.734c1.275 0 2.237-.266 2.883-.798.603-.533.904-1.331.904-2.393 0-1.051-.301-1.837-.904-2.355-.632-.545-1.593-.82-2.883-.82h-4.736.002zm18.391 3.948c.646.717.968 1.689.968 2.922v6.998h-1.2v-2.083a5.611 5.611 0 0 1-4.607 2.374c-1.067 0-1.928-.272-2.589-.819-.658-.559-.988-1.309-.988-2.245 0-1.388.567-2.396 1.704-3.027.913-.518 2.128-.778 3.64-.778l2.777-.022v-.398c0-2.059-1.052-3.089-3.157-3.089-.966 0-1.722.203-2.273.609-.617.406-.987 1.037-1.112 1.892h-1.244c.17-1.218.682-2.128 1.538-2.73.785-.561 1.837-.841 3.156-.841 1.53 0 2.657.413 3.387 1.237zm-.295 4.35-2.715.024c-2.748.012-4.123.931-4.123 2.751 0 .602.232 1.092.693 1.471.45.378 1.067.566 1.854.566 1.136 0 2.146-.377 3.031-1.134.839-.74 1.26-1.548 1.26-2.415v-1.263zm1.969-5.293h1.388l3.557 9.052 3.513-9.052h1.388l-5.997 15.023h-1.368l1.832-4.433-4.313-10.59z"/><defs><clipPath id="a"><path fill="#fff" d="M0 0h128v87H0z" transform="translate(459)"/></clipPath><clipPath id="h"><path fill="#fff" d="M0 0h28v42H0z" transform="translate(38 97.389)"/></clipPath><clipPath id="i"><path fill="#fff" d="M0 0h28v41H0z" transform="translate(541 97.389)"/></clipPath></defs></svg>